<?xml version="1.0" encoding="UTF-8" standalone="no"?>
<svg
   viewBox="0 0 512 360"
   version="1.1"
   id="svg24735"
   sodipodi:docname="groove-density.svg"
   width="512"
   height="360"
   inkscape:version="1.2.2 (732a01da63, 2022-12-09)"
   xmlns:inkscape="http://www.inkscape.org/namespaces/inkscape"
   xmlns:sodipodi="http://sodipodi.sourceforge.net/DTD/sodipodi-0.dtd"
   xmlns="http://www.w3.org/2000/svg"
   xmlns:svg="http://www.w3.org/2000/svg"
   xmlns:rdf="http://www.w3.org/1999/02/22-rdf-syntax-ns#"
   xmlns:cc="http://creativecommons.org/ns#"
   xmlns:dc="http://purl.org/dc/elements/1.1/">
  <sodipodi:namedview
     id="namedview24737"
     pagecolor="#ffffff"
     bordercolor="#000000"
     borderopacity="0.25"
     inkscape:showpageshadow="2"
     inkscape:pageopacity="0.0"
     inkscape:pagecheckerboard="0"
     inkscape:deskcolor="#d1d1d1"
     showgrid="false"
     inkscape:zoom="2.9962962"
     inkscape:cx="256.65019"
     inkscape:cy="201.91595"
     inkscape:window-width="2880"
     inkscape:window-height="1514"
     inkscape:window-x="-11"
     inkscape:window-y="-11"
     inkscape:window-maximized="1"
     inkscape:current-layer="g1252" />
  <defs
     id="defs24317">
    <style
       id="style24315">.cls-1,.cls-10,.cls-13,.cls-2,.cls-3,.cls-4,.cls-5,.cls-6,.cls-7,.cls-8,.cls-9{fill:none;stroke-miterlimit:10;stroke-width:3.27px;}.cls-1,.cls-10,.cls-13{stroke:#4d4d4d;}.cls-1{stroke-dasharray:9 6;}.cls-2,.cls-6{stroke:#de2d27;}.cls-10,.cls-2,.cls-3,.cls-4,.cls-5{stroke-opacity:0.5;}.cls-3,.cls-7{stroke:#34a4cd;}.cls-4,.cls-8{stroke:#619a67;}.cls-5,.cls-9{stroke:#ffba49;}.cls-11{fill:#addbec;}.cls-12{fill:#34a4cd;}</style>
  </defs>
  <title
     id="title24319">01-GDTavola disegno 1</title>
  <metadata
     id="metadata24856">
    <rdf:RDF>
      <cc:Work
         rdf:about="">
        <dc:title>01-GDTavola disegno 1</dc:title>
      </cc:Work>
    </rdf:RDF>
  </metadata>
  <g
     id="g1252">
    <g
       id="g1447">
      <line
         class="cls-5"
         x1="417.88449"
         y1="263.67343"
         x2="242.92271"
         y2="293.01797"
         id="line24351"
         style="stroke-width:1.5;stroke-dasharray:none" />
      <line
         class="cls-4"
         x1="414.89688"
         y1="252.39386"
         x2="242.92271"
         y2="293.01797"
         id="line24355"
         style="stroke-width:1.5;stroke-dasharray:none" />
      <line
         class="cls-1"
         x1="241.72008"
         y1="294.15735"
         x2="241.72008"
         y2="164.5332"
         id="line24321"
         style="stroke-width:1.5;stroke-dasharray:12,1.5;stroke-dashoffset:0" />
      <g
         id="Livello_17"
         data-name="Livello 17"
         transform="matrix(0.42198102,0,0,0.42198102,-127.62726,-35.836041)"
         style="stroke-width:3.55466225;stroke-dasharray:none">
        <g
           id="Livello_22"
           data-name="Livello 22"
           style="stroke-width:3.55466225;stroke-dasharray:none">
          <line
             class="cls-2"
             x1="929.53998"
             y1="370.45001"
             x2="875.27002"
             y2="782.16998"
             id="line24323"
             style="stroke-width:3.55466225;stroke-dasharray:none" />
          <polyline
             class="cls-2"
             points="919.66 379.3 930.3 367.13 936.48 382.23"
             id="polyline24325"
             style="stroke-width:3.55466225;stroke-dasharray:none" />
          <line
             class="cls-3"
             x1="1009.94"
             y1="386.04001"
             x2="875.27002"
             y2="782.01001"
             id="line24327"
             style="stroke-width:3.55466225;stroke-dasharray:none" />
          <polyline
             class="cls-3"
             points="997.96 394.64 1010.77 384.77 1013.9 400.78"
             id="polyline24329"
             style="stroke-width:3.55466225;stroke-dasharray:none" />
        </g>
        <g
           id="Livello_19"
           data-name="Livello 19"
           style="stroke-width:3.55466225;stroke-dasharray:none">
          <line
             class="cls-4"
             x1="984.04999"
             y1="375.92001"
             x2="875.27002"
             y2="782.01001"
             id="line24332"
             style="stroke-width:3.55466225;stroke-dasharray:none" />
          <polyline
             class="cls-4"
             points="972.52 386.96 984.25 375.84 989 391.44"
             id="polyline24334"
             style="stroke-width:3.55466225;stroke-dasharray:none" />
        </g>
        <g
           id="Livello_18"
           data-name="Livello 18"
           style="stroke-width:3.55466225;stroke-dasharray:none">
          <line
             class="cls-5"
             x1="956.79999"
             y1="371.26999"
             x2="875.27002"
             y2="782.01001"
             id="line24337"
             style="stroke-width:3.55466225;stroke-dasharray:none" />
          <polyline
             class="cls-5"
             points="945.79 382.07 957.03 370.45 962.45 385.84"
             id="polyline24339"
             style="stroke-width:3.55466225;stroke-dasharray:none" />
        </g>
      </g>
      <line
         class="cls-3"
         x1="410.44073"
         y1="241.78528"
         x2="242.86363"
         y2="293.04752"
         id="line24343"
         style="stroke-width:1.5;stroke-dasharray:none" />
      <polyline
         class="cls-3"
         points="1262.46 652.64 1278.01 657.08 1266.99 669.11"
         id="polyline24345"
         transform="matrix(0.42198102,0,0,0.42198102,-127.62726,-35.836041)" />
      <line
         class="cls-2"
         x1="418.53433"
         y1="275.38342"
         x2="242.92271"
         y2="293.01797"
         id="line24347"
         style="stroke-width:1.5;stroke-dasharray:none" />
      <polyline
         class="cls-2"
         points="1281.48 730.19 1295.78 737.74 1282.51 747.24"
         id="polyline24349"
         transform="matrix(0.42198102,0,0,0.42198102,-127.62726,-35.836041)" />
      <polyline
         class="cls-5"
         points="1277.91 703.86 1292.9 709.91 1280.67 720.71"
         id="polyline24353"
         transform="matrix(0.42198102,0,0,0.42198102,-127.62726,-35.836041)" />
      <polyline
         class="cls-4"
         points="1271.27 677.51 1286.51 682.91 1274.75 694.23"
         id="polyline24357"
         transform="matrix(0.42198102,0,0,0.42198102,-127.62726,-35.836041)" />
      <g
         id="Livello_23"
         data-name="Livello 23"
         transform="matrix(0.42198102,0,0,0.42198102,-127.62726,-35.836041)"
         style="stroke-width:3.55466225;stroke-dasharray:none">
        <line
           class="cls-6"
           x1="1097.8101"
           y1="432.60001"
           x2="874.69"
           y2="782.84998"
           id="line24360"
           style="stroke-width:3.55466225;stroke-dasharray:none" />
        <polyline
           class="cls-6"
           points="1084.79 436.8 1099.5 430.08 1098.93 446.39"
           id="polyline24362"
           style="stroke-width:3.55466225;stroke-dasharray:none" />
        <line
           class="cls-7"
           x1="1164.1"
           y1="480.69"
           x2="874.76001"
           y2="782.70001"
           id="line24364"
           style="stroke-width:3.55466225;stroke-dasharray:none" />
        <polyline
           class="cls-7"
           points="1149.61 483.43 1165.38 479.89 1161.46 495.73"
           id="polyline24366"
           style="stroke-width:3.55466225;stroke-dasharray:none" />
        <line
           class="cls-8"
           x1="1144.91"
           y1="460.59"
           x2="874.76001"
           y2="782.70001"
           id="line24368"
           style="stroke-width:3.55466225;stroke-dasharray:none" />
        <polyline
           class="cls-8"
           points="1129.79 465.72 1145.13 460.59 1142.84 476.75"
           id="polyline24370"
           style="stroke-width:3.55466225;stroke-dasharray:none" />
        <line
           class="cls-9"
           x1="1122.17"
           y1="444.85999"
           x2="874.76001"
           y2="782.70001"
           id="line24372"
           style="stroke-width:3.55466225;stroke-dasharray:none" />
        <polyline
           class="cls-9"
           points="1107.63 450 1122.73 444.21 1121.14 460.45"
           id="polyline24374"
           style="stroke-width:3.55466225;stroke-dasharray:none" />
      </g>
      <line
         class="cls-10"
         x1="89.022003"
         y1="195.75981"
         x2="242.92271"
         y2="293.01797"
         id="line24377" />
      <line
         class="cls-10"
         x1="243.09993"
         y1="293.01797"
         x2="394.20712"
         y2="200.17372"
         id="line24379" />
      <rect
         class="cls-11"
         x="100.93032"
         y="297.90875"
         width="285.28027"
         height="31.053581"
         id="rect24381"
         style="stroke-width:0.421981" />
      <polygon
         class="cls-12"
         points="609.78,793.43 541.63,793.43 541.63,787.51 609.68,761.02 "
         id="polygon24383"
         transform="matrix(0.42198102,0,0,0.42198102,-127.62726,-35.836041)" />
      <polygon
         class="cls-12"
         points="670.57,793.43 602.42,793.43 602.42,787.51 670.48,761.02 "
         id="polygon24385"
         transform="matrix(0.42198102,0,0,0.42198102,-127.62726,-35.836041)" />
      <polygon
         class="cls-12"
         points="731.36,793.43 663.21,793.43 663.21,787.51 731.27,761.02 "
         id="polygon24387"
         transform="matrix(0.42198102,0,0,0.42198102,-127.62726,-35.836041)" />
      <polygon
         class="cls-12"
         points="792.15,793.43 724,793.43 724,787.51 792.06,761.02 "
         id="polygon24389"
         transform="matrix(0.42198102,0,0,0.42198102,-127.62726,-35.836041)" />
      <polygon
         class="cls-12"
         points="852.94,793.43 784.79,793.43 784.79,787.51 852.85,761.02 "
         id="polygon24391"
         transform="matrix(0.42198102,0,0,0.42198102,-127.62726,-35.836041)" />
      <polygon
         class="cls-12"
         points="913.73,793.43 845.58,793.43 845.58,787.51 913.64,761.02 "
         id="polygon24393"
         transform="matrix(0.42198102,0,0,0.42198102,-127.62726,-35.836041)" />
      <polygon
         class="cls-12"
         points="974.52,793.43 906.37,793.43 906.37,787.51 974.43,761.02 "
         id="polygon24395"
         transform="matrix(0.42198102,0,0,0.42198102,-127.62726,-35.836041)" />
      <polygon
         class="cls-12"
         points="1035.31,793.43 967.16,793.43 967.16,787.51 1035.22,761.02 "
         id="polygon24397"
         transform="matrix(0.42198102,0,0,0.42198102,-127.62726,-35.836041)" />
      <polygon
         class="cls-12"
         points="1096.1,793.43 1027.95,793.43 1027.95,787.51 1096.01,761.02 "
         id="polygon24399"
         transform="matrix(0.42198102,0,0,0.42198102,-127.62726,-35.836041)" />
      <polygon
         class="cls-12"
         points="1156.89,793.43 1088.74,793.43 1088.74,787.51 1156.8,761.02 "
         id="polygon24401"
         transform="matrix(0.42198102,0,0,0.42198102,-127.62726,-35.836041)" />
      <polygon
         class="cls-12"
         points="1217.68,793.43 1149.54,793.43 1149.54,787.51 1217.59,761.02 "
         id="polygon24403"
         transform="matrix(0.42198102,0,0,0.42198102,-127.62726,-35.836041)" />
      <polyline
         class="cls-10"
         points="1220.46 559.26 1236.63 559.29 1229.31 573.88"
         id="polyline24405"
         transform="matrix(0.42198102,0,0,0.42198102,-127.62726,-35.836041)" />
      <polyline
         class="cls-10"
         points="772.97 702.21 779.61 716.95 763.3 716.29"
         id="polyline24407"
         transform="matrix(0.42198102,0,0,0.42198102,-127.62726,-35.836041)"
         style="stroke-width:3.55466225;stroke-dasharray:none" />
      <g
         id="Livello_32"
         data-name="Livello 32"
         transform="matrix(0.42198102,0,0,0.42198102,-127.62726,-35.836041)"
         style="stroke-width:3.55466225;stroke-dasharray:none">
        <path
           class="cls-13"
           d="m 864.67,541.16 c 0,0 -51.86,1.9 -103.08,29.51 -52.74,28.42 -79.09,71.1 -79.09,71.1"
           id="path24410"
           style="stroke-width:3.55466225;stroke-dasharray:none" />
        <polyline
           class="cls-13"
           points="700.33 634.73 682.5 641.77 683.98 622.48"
           id="polyline24412"
           style="stroke-width:3.55466225;stroke-dasharray:none" />
      </g>
      <g
         id="Livello_32-2"
         data-name="Livello 32"
         transform="matrix(0.42198102,0,0,0.42198102,-127.62726,-35.836041)"
         style="stroke-width:3.55466225;stroke-dasharray:none">
        <path
           class="cls-13"
           d="m 1070.11,645.17 c 0,0 -28.59,-46.08 -81.33,-74.5 -51.22,-27.61 -103.09,-29.51 -103.09,-29.51"
           id="path24415"
           style="stroke-width:3.55466225;stroke-dasharray:none" />
        <polyline
           class="cls-13"
           points="1070.23 627.16 1070.76 646.5 1053.29 638.6"
           id="polyline24417"
           style="stroke-width:3.55466225;stroke-dasharray:none" />
      </g>
      <g
         id="Livello_32-3"
         data-name="Livello 32"
         transform="matrix(0.42198102,0,0,0.42198102,-127.62726,-35.836041)"
         style="stroke-width:3.55466225;stroke-dasharray:none">
        <path
           class="cls-13"
           d="m 1002,557.18 c 0,0 -22.8,-17.52 -57,-27.36 a 323.73,323.73 0 0 0 -59.22,-11"
           id="path24420"
           style="stroke-width:3.55466225;stroke-dasharray:none" />
        <polyline
           class="cls-13"
           points="997.3 541.3 1004.72 559.17 985.59 558.04"
           id="polyline24422"
           style="stroke-width:3.55466225;stroke-dasharray:none" />
      </g>
      <line
         class="cls-13"
         x1="102.55917"
         y1="278.64108"
         x2="128.31268"
         y2="278.66641"
         id="line24425"
         style="stroke-width:1.5;stroke-dasharray:none" />
      <polyline
         class="cls-13"
         points="554.84 752.53 543.75 745.19 555.3 738.37"
         id="polyline24427"
         transform="matrix(0.42198102,0,0,0.42198102,-127.62726,-35.836041)" />
      <polyline
         class="cls-13"
         points="554.84 752.53 543.75 745.19 555.3 738.37"
         id="polyline24427-3"
         transform="matrix(-0.42198102,0,0,-0.42198102,358.90502,593.23376)"
         style="fill:none;stroke:#4d4d4d;stroke-width:3.27px;stroke-miterlimit:10" />
      <path
         d="m 124.94948,37.335468 a 5.4857533,5.4857533 0 0 1 -2.53189,1.957992 10.275238,10.275238 0 0 1 -3.79783,0.649851 7.3677886,7.3677886 0 0 1 -3.90754,-1.033854 6.8825104,6.8825104 0 0 1 -2.63738,-2.932768 10.127544,10.127544 0 0 1 -0.9579,-4.413921 v -1.56977 q 0,-4.072117 1.89892,-6.304396 1.89891,-2.23228 5.33384,-2.24072 2.81461,0 4.53629,1.443176 a 6.2832974,6.2832974 0 0 1 2.10991,4.084776 h -2.37576 q -0.66251,-3.586839 -4.24934,-3.586839 -2.3842,0 -3.61638,1.687924 -1.23219,1.687924 -1.24485,4.852782 v 1.472714 q 0,3.034043 1.3841,4.819023 a 4.4856582,4.4856582 0 0 0 3.74719,1.789199 8.2412893,8.2412893 0 0 0 2.33778,-0.295386 3.6121575,3.6121575 0 0 0 1.65416,-1.000095 v -4.034139 h -4.16495 v -1.941112 h 6.52805 z"
         id="path24432"
         style="stroke-width:0.421981" />
      <path
         d="m 135.01373,28.372591 a 6.7052784,6.7052784 0 0 0 -1.12669,-0.08862 c -1.49804,0 -2.53189,0.641411 -3.05515,1.915794 v 9.498793 h -2.28713 V 26.321763 h 2.22806 l 0.038,1.544451 a 3.5573,3.5573 0 0 1 3.18595,-1.79342 2.3715333,2.3715333 0 0 1 1.01698,0.173013 z"
         id="path24434"
         style="stroke-width:0.421981" />
      <path
         d="m 144.87964,39.698562 a 4.6924289,4.6924289 0 0 1 -0.32492,-1.409417 5.0933109,5.0933109 0 0 1 -3.79783,1.658385 4.7177478,4.7177478 0 0 1 -3.24504,-1.118249 3.6205972,3.6205972 0 0 1 -1.26594,-2.835713 3.7978292,3.7978292 0 0 1 1.58665,-3.245034 q 1.59087,-1.156228 4.46878,-1.156228 h 2.22806 v -1.050733 a 2.5698644,2.5698644 0 0 0 -0.71737,-1.911574 2.8990096,2.8990096 0 0 0 -2.1099,-0.713147 3.3294302,3.3294302 0 0 0 -2.05505,0.620312 1.8313976,1.8313976 0 0 0 -0.84396,1.493812 h -2.2998 a 3.135319,3.135319 0 0 1 0.71315,-1.932673 4.8063638,4.8063638 0 0 1 1.92845,-1.476933 6.4647492,6.4647492 0 0 1 2.67536,-0.544356 q 2.31246,0 3.6206,1.156228 a 4.1776121,4.1776121 0 0 1 1.363,3.181737 v 6.156703 a 7.5661197,7.5661197 0 0 0 0.4684,2.932768 v 0.194112 z m -3.79783,-1.742782 a 4.067897,4.067897 0 0 0 2.04239,-0.552795 3.4053868,3.4053868 0 0 0 1.39676,-1.447395 v -2.747097 h -1.79342 q -4.21981,0 -4.21981,2.46015 a 2.0803664,2.0803664 0 0 0 0.71737,1.687924 2.7386568,2.7386568 0 0 0 1.85671,0.594993 z"
         id="path24436"
         style="stroke-width:0.421981" />
      <path
         d="m 153.4965,23.080949 v 3.240814 h 2.4939 v 1.763881 h -2.4939 v 8.308806 a 1.8567165,1.8567165 0 0 0 0.33758,1.194206 1.400977,1.400977 0 0 0 1.13513,0.400882 5.6418862,5.6418862 0 0 0 1.08871,-0.147693 v 1.856717 a 6.6377614,6.6377614 0 0 1 -1.75544,0.244749 2.8441521,2.8441521 0 0 1 -2.31246,-0.928359 3.9750612,3.9750612 0 0 1 -0.77644,-2.633161 v -8.296147 h -2.44327 v -1.763881 h 2.43905 v -3.240814 z"
         id="path24438"
         style="stroke-width:0.421981" />
      <path
         d="m 158.6742,22.772903 a 1.3672185,1.3672185 0 0 1 0.34181,-0.941018 1.2659431,1.2659431 0 0 1 1.00431,-0.384003 1.312361,1.312361 0 0 1 1.01698,0.384003 1.3714383,1.3714383 0 0 1 0.34602,0.941018 1.3081412,1.3081412 0 0 1 -0.34602,0.924138 1.3208006,1.3208006 0 0 1 -1.01698,0.371344 1.2659431,1.2659431 0 0 1 -1.00431,-0.371344 1.3039214,1.3039214 0 0 1 -0.34181,-0.924138 z m 2.47281,16.921439 h -2.28714 V 26.321763 h 2.28714 z"
         id="path24440"
         style="stroke-width:0.421981" />
      <path
         d="m 166.97035,26.321763 0.076,1.687924 a 4.8654412,4.8654412 0 0 1 4.0046,-1.928453 q 4.24091,0 4.27466,4.785265 v 8.832063 h -2.28713 V 30.83696 q 0,-1.447395 -0.65829,-2.139444 a 2.6627002,2.6627002 0 0 0 -2.02129,-0.692048 3.2956718,3.2956718 0 0 0 -1.95378,0.594993 3.9750612,3.9750612 0 0 0 -1.31236,1.55711 v 9.540991 h -2.28713 V 26.321763 Z"
         id="path24442"
         style="stroke-width:0.421981" />
      <path
         d="m 178.23302,32.896228 q 0,-3.12688 1.4474,-4.975157 a 4.9835958,4.9835958 0 0 1 7.65051,-0.118154 l 0.11394,-1.481154 h 2.1099 v 13.051873 q 0,2.595183 -1.54023,4.093216 -1.54023,1.498033 -4.13541,1.498033 a 6.8571916,6.8571916 0 0 1 -2.83149,-0.620312 4.8654412,4.8654412 0 0 1 -2.10991,-1.687924 l 1.18577,-1.375659 a 4.468779,4.468779 0 0 0 3.5995,1.818739 3.5066623,3.5066623 0 0 0 2.60362,-0.941018 3.5910585,3.5910585 0 0 0 0.93258,-2.641601 v -1.152008 a 4.7050884,4.7050884 0 0 1 -3.74719,1.582428 4.5700544,4.5700544 0 0 1 -3.79783,-1.890475 q -1.47694,-1.894694 -1.48116,-5.160827 z m 2.2998,0.261628 q 0,2.257598 0.92836,3.55308 a 3.0087247,3.0087247 0 0 0 2.59518,1.291262 3.3463095,3.3463095 0 0 0 3.17752,-1.966432 v -6.106065 a 3.3758482,3.3758482 0 0 0 -3.1522,-1.915794 3.0382633,3.0382633 0 0 0 -2.61206,1.299702 c -0.62875,0.865061 -0.9368,2.143663 -0.9368,3.844247 z"
         id="path24444"
         style="stroke-width:0.421981" />
      <path
         d="m 207.50585,39.698562 a 4.8612214,4.8612214 0 0 1 -0.32071,-1.409417 5.1017505,5.1017505 0 0 1 -3.79783,1.658385 4.7093082,4.7093082 0 0 1 -3.24503,-1.118249 3.6205972,3.6205972 0 0 1 -1.26595,-2.835713 3.7978292,3.7978292 0 0 1 1.58665,-3.245034 q 1.58665,-1.156228 4.46878,-1.156228 h 2.22384 v -1.050733 a 2.5698644,2.5698644 0 0 0 -0.71315,-1.911574 2.8990096,2.8990096 0 0 0 -2.1099,-0.713147 3.3294302,3.3294302 0 0 0 -2.05505,0.620312 1.8187382,1.8187382 0 0 0 -0.84396,1.493812 h -2.2998 a 3.1521982,3.1521982 0 0 1 0.69627,-1.936892 4.8654412,4.8654412 0 0 1 1.92845,-1.476934 6.4985077,6.4985077 0 0 1 2.67958,-0.544356 q 2.30824,0 3.6206,1.156228 a 4.156513,4.156513 0 0 1 1.35878,3.181737 v 6.156703 a 7.4775037,7.4775037 0 0 0 0.47262,2.932769 v 0.198331 z m -3.79783,-1.742782 a 4.0425782,4.0425782 0 0 0 2.03817,-0.552795 3.3758482,3.3758482 0 0 0 1.39675,-1.447395 v -2.747097 h -1.78498 q -4.21981,0 -4.21981,2.46015 a 2.1099051,2.1099051 0 0 0 0.71315,1.687924 2.7555361,2.7555361 0 0 0 1.86094,0.594993 z"
         id="path24446"
         style="stroke-width:0.421981" />
      <path
         d="m 215.1859,26.321763 0.0717,1.687924 a 4.8738808,4.8738808 0 0 1 4.00882,-1.928453 q 4.21981,0 4.27467,4.785265 v 8.832063 h -2.28714 V 30.83696 q 0,-1.447395 -0.66251,-2.139444 a 2.6500408,2.6500408 0 0 0 -2.02129,-0.692048 3.2830123,3.2830123 0 0 0 -1.94955,0.594993 3.9750612,3.9750612 0 0 0 -1.31236,1.55711 v 9.540991 H 213.0211 V 26.321763 Z"
         id="path24448"
         style="stroke-width:0.421981" />
      <path
         d="m 226.43591,32.896228 q 0,-3.076242 1.45584,-4.949838 a 4.9667166,4.9667166 0 0 1 7.54502,-0.265848 v -6.971126 h 2.28714 V 39.698562 H 235.614 l -0.10971,-1.430516 a 4.6417912,4.6417912 0 0 1 -3.79783,1.687924 4.5658346,4.5658346 0 0 1 -3.79783,-1.903134 q -1.4685,-1.903135 -1.46428,-4.970937 z m 2.28714,0.261628 q 0,2.270258 0.9368,3.5573 a 3.0382633,3.0382633 0 0 0 2.5994,1.265943 3.3420897,3.3420897 0 0 0 3.17752,-1.953772 v -6.122945 a 3.3758482,3.3758482 0 0 0 -3.15642,-1.890475 3.0509228,3.0509228 0 0 0 -2.6205,1.299702 c -0.62453,0.865061 -0.9368,2.143663 -0.9368,3.844247 z"
         id="path24450"
         style="stroke-width:0.421981" />
      <path
         d="M 247.89787,39.698562 V 21.696851 h 5.06377 a 8.1737724,8.1737724 0 0 1 4.15229,1.038074 7.0133246,7.0133246 0 0 1 2.7893,2.953867 9.6464861,9.6464861 0 0 1 0.99587,4.401262 v 1.168887 a 9.6633654,9.6633654 0 0 1 -0.98321,4.46034 6.9204887,6.9204887 0 0 1 -2.80617,2.953867 8.625292,8.625292 0 0 1 -4.23247,1.025414 z m 2.37153,-16.056378 v 14.115265 h 2.49813 q 2.7471,0 4.27045,-1.709023 1.52335,-1.709023 1.52757,-4.865441 v -1.050733 q 0,-3.067802 -1.43896,-4.768386 -1.43895,-1.700583 -4.08899,-1.725902 z"
         id="path24452"
         style="stroke-width:0.421981" />
      <path
         d="m 264.15258,22.772903 a 1.3672185,1.3672185 0 0 1 0.3418,-0.941018 1.2659431,1.2659431 0 0 1 1.00854,-0.384003 1.3081412,1.3081412 0 0 1 1.01275,0.384003 1.3714383,1.3714383 0 0 1 0.34603,0.941018 1.2364044,1.2364044 0 0 1 -1.35878,1.295482 1.2870421,1.2870421 0 0 1 -1.00854,-0.371344 1.3039214,1.3039214 0 0 1 -0.3418,-0.924138 z m 2.47281,16.921439 h -2.28714 V 26.321763 h 2.28714 z"
         id="path24454"
         style="stroke-width:0.421981" />
      <path
         d="M 271.41065,39.698562 V 28.085644 h -2.1099 v -1.763881 h 2.1099 v -1.392537 q 0,-2.143664 1.14779,-3.325211 1.14779,-1.181546 3.25347,-1.173107 a 6.0301088,6.0301088 0 0 1 1.56977,0.206771 l -0.12237,1.844057 a 6.8065539,6.8065539 0 0 0 -1.23641,-0.109715 2.2364994,2.2364994 0 0 0 -1.72168,0.649851 2.6584804,2.6584804 0 0 0 -0.60343,1.865156 v 1.417856 h 2.85681 v 1.763881 h -2.85681 v 11.629797 z"
         id="path24456"
         style="stroke-width:0.421981" />
      <path
         d="M 280.20052,39.698562 V 28.085644 h -2.10991 v -1.763881 h 2.10991 v -1.392537 q 0,-2.143664 1.14778,-3.325211 1.14779,-1.181546 3.25348,-1.173107 a 6.0301088,6.0301088 0 0 1 1.56977,0.206771 l -0.12238,1.844057 a 6.8065539,6.8065539 0 0 0 -1.2364,-0.109715 2.2196202,2.2196202 0 0 0 -1.71746,0.649851 2.6416012,2.6416012 0 0 0 -0.60766,1.865156 v 1.417856 h 2.85682 v 1.763881 h -2.85682 v 11.629797 z"
         id="path24458"
         style="stroke-width:0.421981" />
      <path
         d="m 294.35376,28.372591 a 6.7052784,6.7052784 0 0 0 -1.12669,-0.08862 c -1.49803,0 -2.53189,0.641411 -3.05514,1.915794 v 9.498793 h -2.28714 V 26.321763 h 2.22806 l 0.0211,1.56133 a 3.5573,3.5573 0 0 1 3.18596,-1.793419 2.3715333,2.3715333 0 0 1 1.01697,0.173012 z"
         id="path24460"
         style="stroke-width:0.421981" />
      <path
         d="m 304.19858,39.698562 a 4.6924289,4.6924289 0 0 1 -0.32493,-1.409417 5.0933109,5.0933109 0 0 1 -3.79783,1.658385 4.7177478,4.7177478 0 0 1 -3.24503,-1.118249 3.6205972,3.6205972 0 0 1 -1.26594,-2.835713 3.7978292,3.7978292 0 0 1 1.58664,-3.245034 q 1.58665,-1.156228 4.46878,-1.156228 h 2.22806 v -1.050733 a 2.5698644,2.5698644 0 0 0 -0.71736,-1.911574 2.8990096,2.8990096 0 0 0 -2.10991,-0.713147 3.3294302,3.3294302 0 0 0 -2.05505,0.620312 1.8187382,1.8187382 0 0 0 -0.84396,1.493812 h -2.2998 a 3.135319,3.135319 0 0 1 0.71315,-1.932673 4.8063638,4.8063638 0 0 1 1.92846,-1.476933 6.4647492,6.4647492 0 0 1 2.67535,-0.544356 q 2.31246,0 3.6206,1.156228 a 4.1776121,4.1776121 0 0 1 1.363,3.181737 v 6.156703 a 7.5661197,7.5661197 0 0 0 0.4684,2.932768 v 0.194112 z m -3.79783,-1.742782 a 4.067897,4.067897 0 0 0 2.04239,-0.552795 3.4053868,3.4053868 0 0 0 1.39675,-1.447395 v -2.747097 h -1.79342 q -4.21981,0 -4.21981,2.46015 a 2.0803664,2.0803664 0 0 0 0.71737,1.687924 2.7386568,2.7386568 0 0 0 1.85672,0.594993 z"
         id="path24462"
         style="stroke-width:0.421981" />
      <path
         d="m 315.07725,38.078154 a 3.2872321,3.2872321 0 0 0 2.13522,-0.742686 2.6120625,2.6120625 0 0 0 1.01698,-1.856717 h 2.16054 a 4.1269744,4.1269744 0 0 1 -0.78911,2.190082 5.2114656,5.2114656 0 0 1 -1.94955,1.658385 5.6418862,5.6418862 0 0 1 -2.57408,0.616093 5.5110721,5.5110721 0 0 1 -4.34641,-1.822958 q -1.61196,-1.822958 -1.61196,-4.987816 v -0.384003 a 8.0556177,8.0556177 0 0 1 0.71314,-3.472904 5.4857533,5.4857533 0 0 1 2.05927,-2.363093 5.8486569,5.8486569 0 0 1 3.1733,-0.843962 5.359159,5.359159 0 0 1 3.73875,1.346119 4.8148034,4.8148034 0 0 1 1.58665,3.498223 h -2.16054 a 3.1690775,3.1690775 0 0 0 -0.98322,-2.109905 3.0593624,3.0593624 0 0 0 -2.18164,-0.843962 3.1901765,3.1901765 0 0 0 -2.70068,1.265943 c -0.64141,0.843962 -0.9579,2.042388 -0.9579,3.624817 v 0.421981 c 0,1.54023 0.31649,2.730217 0.94946,3.561519 a 3.223935,3.223935 0 0 0 2.72178,1.244844 z"
         id="path24464"
         style="stroke-width:0.421981" />
      <path
         d="m 326.06563,23.080949 v 3.240814 h 2.49813 v 1.763881 h -2.49813 v 8.308806 a 1.8778155,1.8778155 0 0 0 0.33337,1.206866 1.4178562,1.4178562 0 0 0 1.13935,0.400882 5.7262824,5.7262824 0 0 0 1.08871,-0.147693 v 1.844057 a 6.6630803,6.6630803 0 0 1 -1.75544,0.244749 2.8399323,2.8399323 0 0 1 -2.31246,-0.928359 3.9750612,3.9750612 0 0 1 -0.78066,-2.633161 v -8.296147 h -2.41795 v -1.763881 h 2.43483 v -3.240814 z"
         id="path24466"
         style="stroke-width:0.421981" />
      <path
         d="m 331.24756,22.772903 a 1.3840977,1.3840977 0 0 1 0.33759,-0.941018 1.5233515,1.5233515 0 0 1 2.02128,0 1.3503393,1.3503393 0 0 1 0.34603,0.941018 1.2870421,1.2870421 0 0 1 -0.34603,0.924138 1.3503393,1.3503393 0 0 1 -2.35887,-0.924138 z m 2.47281,16.921439 h -2.28714 V 26.321763 h 2.28714 z"
         id="path24468"
         style="stroke-width:0.421981" />
      <path
         d="m 336.77129,32.883568 a 7.9121441,7.9121441 0 0 1 0.77223,-3.536201 5.7642607,5.7642607 0 0 1 2.1521,-2.422171 5.8486569,5.8486569 0 0 1 3.14798,-0.843962 5.6418862,5.6418862 0 0 1 4.41814,1.890475 q 1.68792,1.894695 1.68792,5.034234 v 0.160352 a 7.9754413,7.9754413 0 0 1 -0.7469,3.502443 5.6798645,5.6798645 0 0 1 -2.13945,2.417951 5.9077343,5.9077343 0 0 1 -3.19439,0.865061 5.6292268,5.6292268 0 0 1 -4.4097,-1.890475 q -1.68793,-1.890475 -1.68793,-5.008914 z m 2.2998,0.274288 a 5.7220626,5.7220626 0 0 0 1.03385,3.569959 3.4940028,3.4940028 0 0 0 5.53217,0 q 1.02542,-1.367218 1.02542,-3.827368 a 5.7178428,5.7178428 0 0 0 -1.04652,-3.565739 3.468684,3.468684 0 0 0 -5.48575,0 q -1.04651,1.308141 -1.04651,3.823148 z"
         id="path24470"
         style="stroke-width:0.421981" />
      <path
         d="m 353.97968,26.321763 0.076,1.687924 a 4.869661,4.869661 0 0 1 4.0046,-1.928453 q 4.21981,0 4.27889,4.785265 v 8.832063 h -2.28713 V 30.83696 q 0,-1.447395 -0.66252,-2.139444 a 2.6500408,2.6500408 0 0 0 -2.02128,-0.692048 3.2956718,3.2956718 0 0 0 -1.95378,0.594993 3.9666216,3.9666216 0 0 0 -1.30814,1.55711 v 9.540991 h -2.28713 V 26.321763 Z"
         id="path24472"
         style="stroke-width:0.421981" />
      <path
         d="m 386.26123,31.258941 a 11.199376,11.199376 0 0 1 -0.89038,4.641791 6.7516963,6.7516963 0 0 1 -2.53189,3.008725 6.9331482,6.9331482 0 0 1 -3.79783,1.038073 6.8571916,6.8571916 0 0 1 -3.77251,-1.046513 6.9289283,6.9289283 0 0 1 -2.53189,-2.979186 10.705658,10.705658 0 0 1 -0.93257,-4.481438 v -1.295482 a 10.971507,10.971507 0 0 1 0.90304,-4.586933 6.6799595,6.6799595 0 0 1 6.32971,-4.105876 6.9837859,6.9837859 0 0 1 3.79783,1.046513 6.7221576,6.7221576 0 0 1 2.53189,3.029824 11.220475,11.220475 0 0 1 0.89038,4.616472 z m -2.3631,-1.160448 q 0,-3.202836 -1.26594,-4.916079 a 4.2535687,4.2535687 0 0 0 -3.5995,-1.687924 4.2198102,4.2198102 0 0 0 -3.54042,1.687924 q -1.29126,1.713243 -1.32924,4.755727 v 1.3208 q 0,3.10578 1.30392,4.878101 a 4.5700544,4.5700544 0 0 0 7.17368,0.101275 q 1.26594,-1.687924 1.29548,-4.806364 z"
         id="path24474"
         style="stroke-width:0.421981" />
      <path
         d="m 395.92881,28.372591 a 6.7052784,6.7052784 0 0 0 -1.14357,-0.06752 c -1.49803,0 -2.53188,0.641411 -3.05092,1.915794 v 9.477694 h -2.28714 V 26.321763 h 2.22384 l 0.038,1.544451 a 3.5573,3.5573 0 0 1 3.19018,-1.79342 2.3630937,2.3630937 0 0 1 1.01275,0.173013 z"
         id="path24476"
         style="stroke-width:0.421981" />
      <path
         d="m 397.23695,32.896228 q 0,-3.076242 1.46006,-4.949838 a 4.9624968,4.9624968 0 0 1 7.5408,-0.265848 v -6.971126 h 2.28713 v 18.989146 h -2.1099 l -0.10972,-1.430516 a 4.6713299,4.6713299 0 0 1 -3.82314,1.687924 4.557395,4.557395 0 0 1 -3.79783,-1.903134 q -1.4685,-1.903135 -1.4685,-4.970937 z m 2.28714,0.261628 c 0,1.514912 0.31649,2.700678 0.94102,3.5573 a 3.0298237,3.0298237 0 0 0 2.59518,1.265943 3.3336501,3.3336501 0 0 0 3.17752,-1.953772 v -6.122945 a 3.3758482,3.3758482 0 0 0 -3.1522,-1.890475 3.0382633,3.0382633 0 0 0 -2.6205,1.299702 c -0.6161,0.865061 -0.94102,2.143663 -0.94102,3.844247 z"
         id="path24478"
         style="stroke-width:0.421981" />
      <path
         d="m 417.62286,39.943311 a 5.8402173,5.8402173 0 0 1 -4.42237,-1.78498 q -1.68792,-1.7892 -1.70902,-4.781045 v -0.421981 a 8.0513979,8.0513979 0 0 1 0.75957,-3.5573 5.9921305,5.9921305 0 0 1 2.1099,-2.44749 5.3718184,5.3718184 0 0 1 2.95387,-0.88194 q 2.60784,0 4.05524,1.717462 1.44739,1.717463 1.44739,4.920299 v 0.953677 h -9.04305 a 4.7515063,4.7515063 0 0 0 1.15623,3.194397 3.6416962,3.6416962 0 0 0 2.81461,1.219525 3.9497423,3.9497423 0 0 0 2.05083,-0.497938 5.1523883,5.1523883 0 0 0 1.47271,-1.308141 l 1.39676,1.088711 q -1.67949,2.586744 -5.04267,2.586744 z M 417.34013,27.95061 a 3.0593624,3.0593624 0 0 0 -2.32512,1.008535 4.8991996,4.8991996 0 0 0 -1.16044,2.823053 h 6.70105 v -0.173013 a 4.3675036,4.3675036 0 0 0 -0.94101,-2.700678 2.8736907,2.8736907 0 0 0 -2.27448,-0.957897 z"
         id="path24480"
         style="stroke-width:0.421981" />
      <path
         d="m 431.95333,28.372591 a 6.7052784,6.7052784 0 0 0 -1.12669,-0.08862 c -1.49803,0 -2.53188,0.641411 -3.05092,1.915794 v 9.498793 h -2.28714 V 26.321763 h 2.21118 l 0.038,1.544451 a 3.5657396,3.5657396 0 0 1 3.19018,-1.79342 2.3630937,2.3630937 0 0 1 1.01275,0.173013 z"
         id="path24482"
         style="stroke-width:0.421981" />
      <path
         d="m 441.84457,36.149701 a 1.6879241,1.6879241 0 0 0 -0.70049,-1.443175 6.6841794,6.6841794 0 0 0 -2.43483,-0.88194 11.600258,11.600258 0 0 1 -2.75554,-0.89038 3.9413027,3.9413027 0 0 1 -1.50225,-1.253284 2.9538671,2.9538671 0 0 1 -0.48528,-1.687924 3.4729038,3.4729038 0 0 1 1.38832,-2.785075 5.4519948,5.4519948 0 0 1 3.55308,-1.135129 5.6039079,5.6039079 0 0 1 3.69233,1.173108 3.7260924,3.7260924 0 0 1 1.41364,3.004505 h -2.2998 a 2.0719268,2.0719268 0 0 0 -0.79754,-1.620408 2.9918454,2.9918454 0 0 0 -2.00863,-0.679389 3.1142199,3.1142199 0 0 0 -1.94955,0.544355 1.6879241,1.6879241 0 0 0 -0.70471,1.422077 1.3798779,1.3798779 0 0 0 0.65407,1.265943 8.0176394,8.0176394 0 0 0 2.36731,0.801764 12.477979,12.477979 0 0 1 2.77664,0.915698 4.0425782,4.0425782 0 0 1 1.57399,1.265943 3.1690775,3.1690775 0 0 1 0.51481,1.827178 3.4307057,3.4307057 0 0 1 -1.43473,2.873691 6.0216692,6.0216692 0 0 1 -3.72188,1.080271 6.7221576,6.7221576 0 0 1 -2.84415,-0.569674 4.6417912,4.6417912 0 0 1 -1.93267,-1.586649 3.7978292,3.7978292 0 0 1 -0.70049,-2.20696 h 2.28714 a 2.3715333,2.3715333 0 0 0 0.91992,1.822958 3.5910585,3.5910585 0 0 0 2.27025,0.675169 3.6923339,3.6923339 0 0 0 2.08459,-0.527476 1.6161873,1.6161873 0 0 0 0.77645,-1.405197 z"
         id="path24484"
         style="stroke-width:0.421981" />
      <path
         d="m 239.14176,82.998034 a 6.692619,6.692619 0 0 1 -2.66692,-1.291262 2.4770286,2.4770286 0 0 1 -0.84396,-1.898914 2.6205021,2.6205021 0 0 1 1.0212,-2.109906 4.0425782,4.0425782 0 0 1 2.65004,-0.843962 4.4054818,4.4054818 0 0 1 1.98331,0.421981 3.1986161,3.1986161 0 0 1 1.35034,1.185767 3.0171643,3.0171643 0 0 1 0.48105,1.654166 h -1.43473 a 1.9833108,1.9833108 0 0 0 -0.62031,-1.544451 2.5318861,2.5318861 0 0 0 -1.75966,-0.561235 2.5740842,2.5740842 0 0 0 -1.64151,0.46418 1.5486703,1.5486703 0 0 0 -0.59077,1.287042 1.3840977,1.3840977 0 0 0 0.56123,1.118249 5.4857533,5.4857533 0 0 0 1.90736,0.843962 8.9122391,8.9122391 0 0 1 2.1099,0.843962 3.1986161,3.1986161 0 0 1 1.12669,1.063393 2.7386568,2.7386568 0 0 1 0.36712,1.434735 2.5318861,2.5318861 0 0 1 -1.02541,2.109905 4.3506243,4.3506243 0 0 1 -2.73444,0.789105 5.0215741,5.0215741 0 0 1 -2.07614,-0.421981 3.4602444,3.4602444 0 0 1 -1.4896,-1.168888 2.8652511,2.8652511 0 0 1 -0.52325,-1.687924 h 1.43051 a 1.8693759,1.8693759 0 0 0 0.72581,1.54867 3.0593624,3.0593624 0 0 0 1.93267,0.565455 2.7850747,2.7850747 0 0 0 1.7259,-0.459959 1.489593,1.489593 0 0 0 0.60344,-1.265943 1.4727138,1.4727138 0 0 0 -0.55702,-1.227965 6.4858483,6.4858483 0 0 0 -2.01285,-0.848182 z"
         id="path24486"
         style="stroke-width:0.421981" />
      <path
         d="m 248.08776,87.960531 a 3.5024425,3.5024425 0 0 1 -2.65848,-1.071832 3.9877206,3.9877206 0 0 1 -1.02119,-2.865251 v -0.253189 a 4.8063638,4.8063638 0 0 1 0.45574,-2.131004 3.5277613,3.5277613 0 0 1 1.26594,-1.468494 3.2070558,3.2070558 0 0 1 1.77654,-0.531696 3.0045049,3.0045049 0 0 1 2.43483,1.029634 q 0.86928,1.033853 0.84396,2.953867 v 0.569674 h -5.40558 a 2.8652511,2.8652511 0 0 0 0.69205,1.920014 2.1900815,2.1900815 0 0 0 1.68793,0.730027 2.4306107,2.4306107 0 0 0 1.23218,-0.295387 3.0635822,3.0635822 0 0 0 0.88194,-0.789104 l 0.84396,0.65407 a 3.3758482,3.3758482 0 0 1 -3.02982,1.548671 z m -0.15191,-7.194777 a 1.8356174,1.8356174 0 0 0 -1.39254,0.603433 2.9538671,2.9538671 0 0 0 -0.69627,1.687924 h 4.01726 v -0.105495 a 2.6247219,2.6247219 0 0 0 -0.56123,-1.620407 1.7385618,1.7385618 0 0 0 -1.36722,-0.565455 z"
         id="path24488"
         style="stroke-width:0.421981" />
      <path
         d="m 256.02522,86.842281 a 1.9622117,1.9622117 0 0 0 1.26595,-0.4473 1.5824288,1.5824288 0 0 0 0.60765,-1.10981 h 1.29548 a 2.4643692,2.4643692 0 0 1 -0.47262,1.312361 3.1268794,3.1268794 0 0 1 -1.16888,0.991656 3.3463095,3.3463095 0 0 1 -1.54446,0.371343 3.3041114,3.3041114 0 0 1 -2.60784,-1.092931 4.3548441,4.3548441 0 0 1 -0.97055,-2.991845 v -0.23209 a 4.8316827,4.8316827 0 0 1 0.42198,-2.084586 3.2619133,3.2619133 0 0 1 1.2364,-1.413637 3.4940028,3.4940028 0 0 1 1.90314,-0.506377 3.223935,3.223935 0 0 1 2.24493,0.810204 2.8736907,2.8736907 0 0 1 0.94946,2.109905 h -1.29548 a 1.8989146,1.8989146 0 0 0 -0.59077,-1.265943 1.8356174,1.8356174 0 0 0 -1.30814,-0.502158 1.9242335,1.9242335 0 0 0 -1.62041,0.755346 3.5319811,3.5319811 0 0 0 -0.57812,2.177422 v 0.257409 a 3.4644642,3.4644642 0 0 0 0.5739,2.135224 1.9242335,1.9242335 0 0 0 1.65838,0.725807 z"
         id="path24490"
         style="stroke-width:0.421981" />
      <path
         d="m 260.39273,83.728061 a 4.7515063,4.7515063 0 0 1 0.46418,-2.109905 3.4475849,3.4475849 0 0 1 1.29126,-1.455834 3.489783,3.489783 0 0 1 1.88625,-0.510597 3.3758482,3.3758482 0 0 1 2.65004,1.135128 4.3632837,4.3632837 0 0 1 1.01276,3.017165 v 0.09705 a 4.802144,4.802144 0 0 1 -0.4473,2.109906 3.3969472,3.3969472 0 0 1 -1.26594,1.447394 3.5530802,3.5530802 0 0 1 -1.9158,0.519037 3.3758482,3.3758482 0 0 1 -2.64582,-1.135129 4.3379649,4.3379649 0 0 1 -1.01275,-3.004505 z m 1.37988,0.160353 a 3.4307057,3.4307057 0 0 0 0.62031,2.143664 2.1099051,2.1099051 0 0 0 3.31677,0 3.7387518,3.7387518 0 0 0 0.61609,-2.295577 3.4391453,3.4391453 0 0 0 -0.62453,-2.143664 2.00019,2.00019 0 0 0 -1.68793,-0.818643 1.9622117,1.9622117 0 0 0 -1.63728,0.810204 3.7049934,3.7049934 0 0 0 -0.60343,2.304016 z"
         id="path24492"
         style="stroke-width:0.421981" />
      <path
         d="m 270.72282,79.786758 0.0422,1.008535 a 2.9243285,2.9243285 0 0 1 2.40529,-1.156228 q 2.53189,0 2.56565,2.869471 v 5.295862 h -1.37144 v -5.300082 a 1.8609363,1.8609363 0 0 0 -0.39666,-1.287042 1.6077477,1.6077477 0 0 0 -1.21531,-0.421981 1.9748712,1.9748712 0 0 0 -1.16889,0.354464 2.4432701,2.4432701 0 0 0 -0.7891,0.936798 v 5.717843 h -1.37144 v -8.01764 z"
         id="path24494"
         style="stroke-width:0.421981" />
      <path
         d="m 277.47452,83.732281 a 4.7219676,4.7219676 0 0 1 0.87772,-2.953867 2.9749662,2.9749662 0 0 1 4.52364,-0.156133 V 76.41091 h 1.35034 v 11.393488 h -1.26595 l -0.0633,-0.843962 a 2.7850747,2.7850747 0 0 1 -2.29136,1.008534 2.7428766,2.7428766 0 0 1 -2.27448,-1.139348 4.7599459,4.7599459 0 0 1 -0.85662,-2.991846 z m 1.37566,0.156133 a 3.5488604,3.5488604 0 0 0 0.56123,2.135224 1.8187382,1.8187382 0 0 0 1.55711,0.772225 2.00019,2.00019 0 0 0 1.90736,-1.168887 v -3.688114 a 2.0212891,2.0212891 0 0 0 -1.89048,-1.135129 1.8271778,1.8271778 0 0 0 -1.57399,0.780665 3.9159839,3.9159839 0 0 0 -0.56967,2.304016 z"
         id="path24496"
         style="stroke-width:0.421981" />
      <path
         d="m 298.65375,82.761725 a 6.6462011,6.6462011 0 0 1 -0.53592,2.772415 4.0805565,4.0805565 0 0 1 -1.51069,1.806079 4.1902715,4.1902715 0 0 1 -2.28714,0.620312 4.0214791,4.0214791 0 0 1 -3.79783,-2.413732 6.4563096,6.4563096 0 0 1 -0.56123,-2.688019 v -0.780665 a 6.5744643,6.5744643 0 0 1 0.54435,-2.751316 4.0045999,4.0045999 0 0 1 3.79783,-2.460149 4.1776121,4.1776121 0 0 1 2.28714,0.624532 4.0425782,4.0425782 0 0 1 1.52335,1.818738 6.6673001,6.6673001 0 0 1 0.53592,2.768195 z m -1.41786,-0.696269 q 0,-1.924233 -0.77222,-2.953867 a 2.7470964,2.7470964 0 0 0 -4.28311,0 4.7726053,4.7726053 0 0 0 -0.79755,2.852592 v 0.793324 a 4.8316827,4.8316827 0 0 0 0.78489,2.924328 2.7386568,2.7386568 0 0 0 4.28733,0.0633 c 0.50637,-0.670949 0.76378,-1.633066 0.78066,-2.88213 z"
         id="path24498"
         style="stroke-width:0.421981" />
      <path
         d="m 304.45177,81.018943 a 4.1860517,4.1860517 0 0 0 -0.67517,-0.05064 1.8060788,1.8060788 0 0 0 -1.8314,1.147789 v 5.688304 h -1.37144 v -8.01764 h 1.33346 l 0.0253,0.928359 a 2.135224,2.135224 0 0 1 1.91157,-1.076052 1.3545591,1.3545591 0 0 1 0.60766,0.105495 z"
         id="path24500"
         style="stroke-width:0.421981" />
      <path
         d="m 305.24087,83.732281 a 4.7177478,4.7177478 0 0 1 0.8735,-2.953867 2.9749662,2.9749662 0 0 1 4.52364,-0.156133 V 76.41091 h 1.37566 v 11.393488 h -1.26595 l -0.0675,-0.843962 a 2.7850747,2.7850747 0 0 1 -2.29136,1.008534 2.7428766,2.7428766 0 0 1 -2.27448,-1.139348 4.7557261,4.7557261 0 0 1 -0.87772,-2.983406 z m 1.37144,0.156133 a 3.5488604,3.5488604 0 0 0 0.56123,2.135224 1.8313976,1.8313976 0 0 0 1.56133,0.772225 1.9959702,1.9959702 0 0 0 1.90314,-1.168887 v -3.688114 a 2.0170693,2.0170693 0 0 0 -1.89048,-1.135129 1.8313976,1.8313976 0 0 0 -1.57399,0.780665 3.9159839,3.9159839 0 0 0 -0.56123,2.304016 z"
         id="path24502"
         style="stroke-width:0.421981" />
      <path
         d="m 317.46988,87.960531 a 3.5024425,3.5024425 0 0 1 -2.65426,-1.071832 3.9708414,3.9708414 0 0 1 -1.02541,-2.865251 v -0.253189 a 4.7515063,4.7515063 0 0 1 0.45996,-2.131004 3.4982227,3.4982227 0 0 1 1.26594,-1.468494 3.1986161,3.1986161 0 0 1 1.77654,-0.531696 3.0002851,3.0002851 0 0 1 2.43061,1.029634 c 0.58233,0.687829 0.86928,1.687924 0.86928,2.953867 v 0.569674 h -5.43512 a 2.8441521,2.8441521 0 0 0 0.71737,1.924234 2.1858617,2.1858617 0 0 0 1.68793,0.730027 2.4306107,2.4306107 0 0 0 1.23218,-0.295387 3.1184397,3.1184397 0 0 0 0.88194,-0.789104 l 0.84396,0.65407 a 3.3758482,3.3758482 0 0 1 -3.05092,1.544451 z m -0.16879,-7.194777 a 1.8440571,1.8440571 0 0 0 -1.39676,0.603433 2.9538671,2.9538671 0 0 0 -0.69627,1.687924 h 4.04258 v -0.105495 a 2.5994031,2.5994031 0 0 0 -0.56545,-1.620407 1.7259024,1.7259024 0 0 0 -1.3841,-0.565455 z"
         id="path24504"
         style="stroke-width:0.421981" />
      <path
         d="m 326.06985,81.018943 a 4.2620083,4.2620083 0 0 0 -0.67517,-0.05064 1.8102986,1.8102986 0 0 0 -1.83561,1.147789 v 5.688304 h -1.35456 v -8.01764 h 1.33768 v 0.928359 a 2.1394438,2.1394438 0 0 1 1.91157,-1.076052 1.3756581,1.3756581 0 0 1 0.61187,0.105495 z"
         id="path24506"
         style="stroke-width:0.421981" />
      <path
         d="m 261.15651,98.619771 a 11.456785,11.456785 0 0 1 0.4473,-3.219715 9.3468796,9.3468796 0 0 1 1.3419,-2.801954 5.6798645,5.6798645 0 0 1 1.84406,-1.78076 l 0.28273,0.90304 a 5.9457126,5.9457126 0 0 0 -1.77654,2.531886 10.971507,10.971507 0 0 0 -0.75957,3.818928 v 0.628752 a 11.068562,11.068562 0 0 0 1.04651,4.970932 6.0047899,6.0047899 0 0 0 1.49804,1.97488 l -0.28273,0.84396 a 5.8444371,5.8444371 0 0 1 -1.88204,-1.83984 10.283677,10.283677 0 0 1 -1.75966,-6.030109 z"
         id="path24508"
         style="stroke-width:0.421981" />
      <path
         d="m 267.693,94.978075 0.0338,0.89038 a 2.9538671,2.9538671 0 0 1 2.38419,-1.038073 q 1.68792,0 2.29136,1.291262 a 3.0171643,3.0171643 0 0 1 1.04229,-0.936798 3.0804614,3.0804614 0 0 1 1.51491,-0.354464 q 2.6416,0 2.68802,2.797734 v 5.367594 h -1.37566 v -5.287418 a 1.8440571,1.8440571 0 0 0 -0.39244,-1.287042 1.734342,1.734342 0 0 0 -1.3208,-0.421981 1.8145184,1.8145184 0 0 0 -1.26594,0.45574 1.8482769,1.8482769 0 0 0 -0.58656,1.227965 v 5.312736 h -1.37987 v -5.249439 q 0,-1.751222 -1.71325,-1.751222 a 1.8440571,1.8440571 0 0 0 -1.84827,1.147789 v 5.852872 h -1.37144 v -8.017635 z"
         id="path24510"
         style="stroke-width:0.421981" />
      <path
         d="m 285.9901,96.965606 h -6.18625 V 95.7714 h 6.18625 z m 0,3.080464 h -6.18625 v -1.189989 h 6.18625 z"
         id="path24512"
         style="stroke-width:0.421981" />
      <path
         d="m 294.98673,102.99571 h -7.07662 v -0.98743 l 3.73875,-4.152294 a 8.8616014,8.8616014 0 0 0 1.14779,-1.531791 2.5318861,2.5318861 0 0 0 0.31649,-1.219525 1.9411127,1.9411127 0 0 0 -0.51482,-1.388318 1.7849797,1.7849797 0 0 0 -1.363,-0.540136 2.1099051,2.1099051 0 0 0 -1.59087,0.582334 2.2196202,2.2196202 0 0 0 -0.56967,1.620407 h -1.37144 a 3.1732973,3.1732973 0 0 1 0.96212,-2.409511 3.5530802,3.5530802 0 0 1 2.56986,-0.919919 3.4138265,3.4138265 0 0 1 2.37997,0.789104 2.7006785,2.7006785 0 0 1 0.87772,2.109906 q 0,1.595088 -2.03394,3.797829 l -2.89479,3.139534 h 5.42245 z"
         id="path24514"
         style="stroke-width:0.421981" />
      <path
         d="m 299.7509,98.695728 a 11.393488,11.393488 0 0 1 -0.42198,3.169082 9.249824,9.249824 0 0 1 -1.32924,2.80195 5.7853598,5.7853598 0 0 1 -1.86938,1.82296 l -0.29117,-0.84396 a 5.9710314,5.9710314 0 0 0 1.83562,-2.72178 11.671995,11.671995 0 0 0 0.70893,-4.088998 v -0.23631 a 12.372484,12.372484 0 0 0 -0.32493,-2.899009 9.827938,9.827938 0 0 0 -0.91148,-2.396852 5.4857533,5.4857533 0 0 0 -1.30814,-1.654166 l 0.29117,-0.843962 a 5.8613164,5.8613164 0 0 1 1.86516,1.810298 9.2835824,9.2835824 0 0 1 1.32502,2.797735 11.667775,11.667775 0 0 1 0.43042,3.283012 z"
         id="path24516"
         style="stroke-width:0.421981" />
      <path
         d="m 336.41683,118.29675 h -4.53208 v 4.7726 h -1.42629 V 112.2793 h 6.69262 v 1.16466 h -5.26633 v 3.70078 h 4.53208 z"
         id="path24518"
         style="stroke-width:0.421981" />
      <path
         d="m 338.66177,112.91227 a 0.81020356,0.81020356 0 0 1 0.20255,-0.56124 0.90725919,0.90725919 0 0 1 1.21108,0 0.79754413,0.79754413 0 0 1 0.21099,0.56124 0.84396204,0.84396204 0 0 1 -1.42207,0.55701 0.79332432,0.79332432 0 0 1 -0.20255,-0.55701 z m 1.48115,10.15708 h -1.37144 v -8.01764 h 1.37144 z"
         id="path24520"
         style="stroke-width:0.421981" />
      <path
         d="m 346.20679,116.27124 a 4.2198102,4.2198102 0 0 0 -0.67517,-0.0506 1.8060788,1.8060788 0 0 0 -1.8314,1.15201 v 5.69674 h -1.37144 v -8.01764 h 1.33346 l 0.0211,0.92414 a 2.1394438,2.1394438 0 0 1 1.9158,-1.07605 1.4262958,1.4262958 0 0 1 0.60765,0.10549 z"
         id="path24522"
         style="stroke-width:0.421981" />
      <path
         d="m 352.13984,120.93835 a 1.0127544,1.0127544 0 0 0 -0.42198,-0.84396 4.0847763,4.0847763 0 0 0 -1.46005,-0.52748 7.0386434,7.0386434 0 0 1 -1.65417,-0.53592 2.333555,2.333555 0 0 1 -0.90726,-0.74268 1.7807599,1.7807599 0 0 1 -0.29117,-1.0212 2.1099051,2.1099051 0 0 1 0.84397,-1.68792 3.2661331,3.2661331 0 0 1 2.13522,-0.68361 3.3758482,3.3758482 0 0 1 2.21118,0.70471 2.2364994,2.2364994 0 0 1 0.84396,1.80608 h -1.37988 a 1.2659431,1.2659431 0 0 0 -0.48105,-0.97478 1.7891995,1.7891995 0 0 0 -1.20265,-0.42198 1.8651561,1.8651561 0 0 0 -1.17311,0.32492 1.0254139,1.0254139 0 0 0 -0.42198,0.84397 0.84396204,0.84396204 0 0 0 0.39244,0.75112 4.7599459,4.7599459 0 0 0 1.42208,0.48106 7.426866,7.426866 0 0 1 1.66261,0.54858 2.3841928,2.3841928 0 0 1 0.94523,0.768 1.8735957,1.8735957 0 0 1 0.30805,1.09293 2.0592674,2.0592674 0 0 1 -0.84396,1.72591 3.6205972,3.6205972 0 0 1 -2.23228,0.64985 4.0299187,4.0299187 0 0 1 -1.68793,-0.34181 2.7681955,2.7681955 0 0 1 -1.16044,-0.95368 2.3040164,2.3040164 0 0 1 -0.42199,-1.32502 h 1.37144 a 1.422076,1.422076 0 0 0 0.5528,1.09715 2.1605428,2.1605428 0 0 0 1.35878,0.40089 2.2575985,2.2575985 0 0 0 1.26594,-0.31227 0.97477616,0.97477616 0 0 0 0.4262,-0.82286 z"
         id="path24524"
         style="stroke-width:0.421981" />
      <path
         d="m 357.16142,113.09794 v 1.94533 h 1.49803 v 1.05918 h -1.49803 v 4.98359 a 1.1182497,1.1182497 0 0 0 0.20255,0.72581 0.84396204,0.84396204 0 0 0 0.67939,0.24053 3.3420897,3.3420897 0 0 0 0.65407,-0.0886 v 1.10559 a 4.0721168,4.0721168 0 0 1 -1.05496,0.1477 1.6879241,1.6879241 0 0 1 -1.38409,-0.55702 2.3926324,2.3926324 0 0 1 -0.4684,-1.58243 v -4.97515 h -1.46006 v -1.05918 h 1.46006 v -1.94533 z"
         id="path24526"
         style="stroke-width:0.421981" />
      <path
         d="m 372.54684,118.01824 a 6.6377614,6.6377614 0 0 1 -0.53591,2.76819 4.0383584,4.0383584 0 0 1 -1.51069,1.80608 4.1776121,4.1776121 0 0 1 -6.09763,-1.7892 6.4774087,6.4774087 0 0 1 -0.56124,-2.69224 v -0.768 a 6.5618049,6.5618049 0 0 1 0.54436,-2.75132 3.9961603,3.9961603 0 0 1 3.79783,-2.46437 4.1818319,4.1818319 0 0 1 2.28714,0.62876 4.0045999,4.0045999 0 0 1 1.52335,1.81451 6.6715199,6.6715199 0 0 1 0.53591,2.77242 z m -1.41785,-0.70049 q 0,-1.91579 -0.77223,-2.95387 a 2.7428766,2.7428766 0 0 0 -4.28311,0 4.7599459,4.7599459 0 0 0 -0.79754,2.84838 v 0.79754 a 4.8316827,4.8316827 0 0 0 0.78488,2.92433 2.7428766,2.7428766 0 0 0 4.29155,0.0591 4.8232431,4.8232431 0 0 0 0.77645,-2.88214 z"
         id="path24528"
         style="stroke-width:0.421981" />
      <path
         d="m 378.32798,116.27124 a 4.1691725,4.1691725 0 0 0 -0.67095,-0.0506 1.8145184,1.8145184 0 0 0 -1.83561,1.15201 v 5.69674 h -1.37144 v -8.01764 h 1.34612 v 0.92414 a 2.135224,2.135224 0 0 1 1.91157,-1.07605 1.400977,1.400977 0 0 1 0.60765,0.10549 z"
         id="path24530"
         style="stroke-width:0.421981" />
      <path
         d="m 379.13397,118.9888 a 4.7008686,4.7008686 0 0 1 0.8735,-2.95387 2.7724153,2.7724153 0 0 1 2.29135,-1.12669 2.801954,2.801954 0 0 1 2.2365,0.96634 v -4.18184 h 1.38832 v 11.39349 h -1.26594 l -0.0675,-0.84396 a 2.7977342,2.7977342 0 0 1 -2.29136,1.00853 2.7428766,2.7428766 0 0 1 -2.27447,-1.14357 4.7472865,4.7472865 0 0 1 -0.87772,-2.9834 z m 1.37144,0.15613 a 3.5657396,3.5657396 0 0 0 0.56545,2.13522 1.8187382,1.8187382 0 0 0 1.55711,0.77223 2.0086297,2.0086297 0 0 0 1.90735,-1.17311 v -3.68811 a 2.0255089,2.0255089 0 0 0 -1.89469,-1.13513 1.8313976,1.8313976 0 0 0 -1.56977,0.78066 3.9202037,3.9202037 0 0 0 -0.56545,2.30824 z"
         id="path24532"
         style="stroke-width:0.421981" />
      <path
         d="m 391.36298,123.21705 a 3.5151019,3.5151019 0 0 1 -2.65426,-1.07184 3.979281,3.979281 0 0 1 -1.0212,-2.86947 v -0.24475 a 4.8232431,4.8232431 0 0 1 0.45574,-2.13522 3.578399,3.578399 0 0 1 1.26594,-1.46849 3.2070558,3.2070558 0 0 1 1.77654,-0.5317 3.0171643,3.0171643 0 0 1 2.43484,1.03385 q 0.86928,1.02964 0.84396,2.95387 v 0.56967 h -5.43512 a 2.8314926,2.8314926 0 0 0 0.69205,1.9158 2.1732023,2.1732023 0 0 0 1.68792,0.73003 2.3884126,2.3884126 0 0 0 1.23219,-0.29539 3.1100001,3.1100001 0 0 0 0.88194,-0.78489 l 0.84396,0.64985 a 3.3758482,3.3758482 0 0 1 -3.0045,1.54868 z m -0.1688,-7.19478 a 1.8187382,1.8187382 0 0 0 -1.39253,0.60343 2.9032294,2.9032294 0 0 0 -0.70049,1.68793 h 4.02148 v -0.1055 a 2.5994031,2.5994031 0 0 0 -0.56546,-1.62041 1.7132429,1.7132429 0 0 0 -1.363,-0.56545 z"
         id="path24534"
         style="stroke-width:0.421981" />
      <path
         d="m 399.96295,116.27124 a 4.2198102,4.2198102 0 0 0 -0.67517,-0.0506 1.8060788,1.8060788 0 0 0 -1.8314,1.15201 v 5.69674 h -1.37566 v -8.01764 h 1.33768 v 0.92414 a 2.1394438,2.1394438 0 0 1 1.9158,-1.07605 1.4262958,1.4262958 0 0 1 0.60765,0.10549 z"
         id="path24536"
         style="stroke-width:0.421981" />
      <path
         d="m 345.35439,133.87629 a 11.456785,11.456785 0 0 1 0.4473,-3.21972 9.4608145,9.4608145 0 0 1 1.33768,-2.80617 5.713623,5.713623 0 0 1 1.84827,-1.77654 l 0.28273,0.90304 a 5.9077343,5.9077343 0 0 0 -1.77654,2.53188 10.908209,10.908209 0 0 0 -0.75957,3.81893 v 0.63297 a 11.081222,11.081222 0 0 0 1.04652,4.97094 5.8824154,5.8824154 0 0 0 1.49803,1.97065 l -0.28273,0.84396 a 5.8444371,5.8444371 0 0 1 -1.88203,-1.83984 10.304777,10.304777 0 0 1 -1.75966,-6.0301 z"
         id="path24538"
         style="stroke-width:0.421981" />
      <path
         d="m 351.88665,130.23459 0.038,0.89038 a 2.9538671,2.9538671 0 0 1 2.37997,-1.04229 q 1.68793,0 2.29558,1.29126 a 3.0087247,3.0087247 0 0 1 1.05073,-0.94946 3.0804614,3.0804614 0 0 1 1.51491,-0.35868 q 2.64161,0 2.6838,2.79773 v 5.38026 h -1.37143 v -5.28742 a 1.8440571,1.8440571 0 0 0 -0.39245,-1.26595 1.7174628,1.7174628 0 0 0 -1.3208,-0.42198 1.7891995,1.7891995 0 0 0 -1.26594,0.45996 1.8440571,1.8440571 0 0 0 -0.58655,1.22375 v 5.32962 h -1.37144 v -5.2832 c 0,-1.16467 -0.5739,-1.75123 -1.71325,-1.75123 a 1.8313976,1.8313976 0 0 0 -1.84827,1.15201 v 5.86132 h -1.37144 v -8.01764 z"
         id="path24540"
         style="stroke-width:0.421981" />
      <path
         d="m 370.18797,132.22212 h -6.18624 v -1.19421 h 6.18624 z m 0,3.07624 h -6.18624 v -1.18577 h 6.18624 z"
         id="path24542"
         style="stroke-width:0.421981" />
      <path
         d="m 376.64006,138.26067 h -1.37988 v -9.14855 l -2.76819,1.01697 v -1.24484 l 3.93286,-1.47693 h 0.21521 z"
         id="path24544"
         style="stroke-width:0.421981" />
      <path
         d="m 383.94877,133.94802 a 11.57072,11.57072 0 0 1 -0.42198,3.1733 9.4312758,9.4312758 0 0 1 -1.32924,2.79773 5.8148985,5.8148985 0 0 1 -1.8736,1.82718 l -0.28694,-0.84396 a 5.9879107,5.9879107 0 0 0 1.83561,-2.71756 11.874546,11.874546 0 0 0 0.70893,-4.09321 v -0.23631 a 12.085536,12.085536 0 0 0 -0.32914,-2.89479 9.7055635,9.7055635 0 0 0 -0.90726,-2.40108 5.5743693,5.5743693 0 0 0 -1.30814,-1.65416 l 0.28694,-0.84396 a 5.7558211,5.7558211 0 0 1 1.86516,1.80608 9.4903531,9.4903531 0 0 1 1.32924,2.79773 11.709973,11.709973 0 0 1 0.43042,3.28301 z"
         id="path24546"
         style="stroke-width:0.421981" />
      <path
         d="m 395.77268,181.0622 h 6.18624 v 1.16467 h -7.86151 v -1.07183 l 5.90774,-8.56622 h -5.82334 v -1.16466 h 7.53236 v 1.03807 z"
         id="path24548"
         style="stroke-width:0.421981" />
      <path
         d="m 406.75684,182.37878 a 3.5024425,3.5024425 0 0 1 -2.65426,-1.07183 3.9835008,3.9835008 0 0 1 -1.02541,-2.86947 v -0.24897 a 4.8232431,4.8232431 0 0 1 0.45574,-2.13522 3.578399,3.578399 0 0 1 1.26594,-1.4685 3.2070558,3.2070558 0 0 1 1.77654,-0.53169 3.0045049,3.0045049 0 0 1 2.43483,1.03385 q 0.86506,1.03386 0.86928,2.95387 v 0.57389 h -5.43089 a 2.8568115,2.8568115 0 0 0 0.69627,1.9158 2.1605428,2.1605428 0 0 0 1.68792,0.73002 2.379973,2.379973 0 0 0 1.23219,-0.29538 3.0551426,3.0551426 0 0 0 0.88194,-0.78489 l 0.84396,0.64985 a 3.3758482,3.3758482 0 0 1 -3.03405,1.54867 z m -0.17301,-7.19477 a 1.8187382,1.8187382 0 0 0 -1.39254,0.60343 2.9243285,2.9243285 0 0 0 -0.69626,1.68792 h 4.02148 v -0.10549 a 2.6247219,2.6247219 0 0 0 -0.56546,-1.62041 1.7259024,1.7259024 0 0 0 -1.35034,-0.56545 z"
         id="path24550"
         style="stroke-width:0.421981" />
      <path
         d="m 415.3526,175.43298 a 4.1860517,4.1860517 0 0 0 -0.67517,-0.0506 1.8060788,1.8060788 0 0 0 -1.8314,1.15201 v 5.69674 h -1.37144 v -8.01764 h 1.33346 l 0.0253,0.92414 a 2.1099051,2.1099051 0 0 1 1.91158,-1.07605 1.4262958,1.4262958 0 0 1 0.60765,0.10549 z"
         id="path24552"
         style="stroke-width:0.421981" />
      <path
         d="m 416.10372,178.14209 a 4.7093082,4.7093082 0 0 1 0.46418,-2.1099 3.4560246,3.4560246 0 0 1 1.28705,-1.45162 3.5193217,3.5193217 0 0 1 1.89047,-0.51481 3.3758482,3.3758482 0 0 1 2.65004,1.13513 4.3759432,4.3759432 0 0 1 1.01276,3.02138 v 0.0971 a 4.7683855,4.7683855 0 0 1 -0.4473,2.1099 3.4096066,3.4096066 0 0 1 -1.26595,1.45162 3.5657396,3.5657396 0 0 1 -1.92001,0.51903 3.3758482,3.3758482 0 0 1 -2.6416,-1.13513 4.3506243,4.3506243 0 0 1 -1.01276,-3.0045 z m 1.37988,0.16458 a 3.4560246,3.4560246 0 0 0 0.61609,2.14366 1.9917504,1.9917504 0 0 0 1.65839,0.80598 1.9622117,1.9622117 0 0 0 1.6626,-0.81864 3.7598509,3.7598509 0 0 0 0.6161,-2.29558 3.4180463,3.4180463 0 0 0 -0.62875,-2.13944 2.0845862,2.0845862 0 0 0 -3.30412,0 3.7471915,3.7471915 0 0 0 -0.62031,2.30402 z"
         id="path24554"
         style="stroke-width:0.421981" />
      <path
         d="m 437.40533,177.17576 a 6.6462011,6.6462011 0 0 1 -0.53592,2.77241 4.0383584,4.0383584 0 0 1 -1.51069,1.80608 4.1818319,4.1818319 0 0 1 -2.28714,0.62453 4.0383584,4.0383584 0 0 1 -3.79783,-2.41373 6.4141115,6.4141115 0 0 1 -0.55701,-2.69224 v -0.77644 a 6.5618049,6.5618049 0 0 1 0.54013,-2.75132 3.9961603,3.9961603 0 0 1 3.79783,-2.46437 4.1818319,4.1818319 0 0 1 2.28714,0.62875 4.0045999,4.0045999 0 0 1 1.52335,1.81452 6.6715199,6.6715199 0 0 1 0.53592,2.77242 z m -1.41786,-0.69627 q 0,-1.91579 -0.77223,-2.95387 a 2.7428766,2.7428766 0 0 0 -4.2831,0 4.7599459,4.7599459 0 0 0 -0.79755,2.84837 v 0.79333 a 4.8359025,4.8359025 0 0 0 0.78489,2.92855 2.7428766,2.7428766 0 0 0 4.29154,0.0591 4.8232431,4.8232431 0 0 0 0.77645,-2.88213 z"
         id="path24556"
         style="stroke-width:0.421981" />
      <path
         d="m 443.216,175.43298 a 4.2620083,4.2620083 0 0 0 -0.67517,-0.0506 1.8145184,1.8145184 0 0 0 -1.83561,1.15201 v 5.69674 h -1.37144 v -8.01764 h 1.33768 v 0.92414 a 2.1394438,2.1394438 0 0 1 1.91157,-1.07605 1.4347355,1.4347355 0 0 1 0.61188,0.10549 z"
         id="path24558"
         style="stroke-width:0.421981" />
      <path
         d="m 444.00089,178.15053 a 4.7008686,4.7008686 0 0 1 0.8735,-2.95386 2.7724153,2.7724153 0 0 1 2.29136,-1.12669 2.801954,2.801954 0 0 1 2.2365,0.96633 v -4.18183 h 1.37143 v 11.39349 h -1.26594 l -0.0675,-0.84396 a 2.7977342,2.7977342 0 0 1 -2.29135,1.00853 2.7513163,2.7513163 0 0 1 -2.27448,-1.14357 4.7472865,4.7472865 0 0 1 -0.87772,-2.9834 z m 1.37144,0.15614 a 3.5657396,3.5657396 0 0 0 0.56545,2.13522 1.8187382,1.8187382 0 0 0 1.55711,0.77223 2.0086297,2.0086297 0 0 0 1.90736,-1.17311 v -3.68811 a 2.0255089,2.0255089 0 0 0 -1.8947,-1.13513 1.8313976,1.8313976 0 0 0 -1.56977,0.78066 3.9202037,3.9202037 0 0 0 -0.56545,2.30824 z"
         id="path24560"
         style="stroke-width:0.421981" />
      <path
         d="m 456.23412,182.37878 a 3.5193217,3.5193217 0 0 1 -2.65848,-1.07183 3.9961603,3.9961603 0 0 1 -1.0212,-2.86947 v -0.24897 a 4.8232431,4.8232431 0 0 1 0.45574,-2.13522 3.578399,3.578399 0 0 1 1.26595,-1.4685 3.2070558,3.2070558 0 0 1 1.77654,-0.53169 3.0129445,3.0129445 0 0 1 2.43483,1.03385 q 0.86506,1.03386 0.84396,2.95387 v 0.57389 h -5.43512 a 2.8525917,2.8525917 0 0 0 0.69205,1.9158 2.1732023,2.1732023 0 0 0 1.68793,0.73002 2.3884126,2.3884126 0 0 0 1.23218,-0.29538 3.1100001,3.1100001 0 0 0 0.88194,-0.78489 l 0.84396,0.64985 a 3.3758482,3.3758482 0 0 1 -3.00028,1.54867 z m -0.17301,-7.19477 a 1.8187382,1.8187382 0 0 0 -1.39254,0.60343 2.9285483,2.9285483 0 0 0 -0.70049,1.68792 h 4.02148 v -0.10549 a 2.6247219,2.6247219 0 0 0 -0.56123,-1.62041 1.7259024,1.7259024 0 0 0 -1.36722,-0.56545 z"
         id="path24562"
         style="stroke-width:0.421981" />
      <path
         d="m 464.83409,175.43298 a 4.2198102,4.2198102 0 0 0 -0.67517,-0.0506 1.8060788,1.8060788 0 0 0 -1.8314,1.15201 v 5.69674 h -1.37565 v -8.01764 h 1.35034 v 0.92414 a 2.1394438,2.1394438 0 0 1 1.91579,-1.07605 1.4262958,1.4262958 0 0 1 0.60765,0.10549 z"
         id="path24564"
         style="stroke-width:0.421981" />
      <path
         d="m 409.90904,193.03802 a 11.456785,11.456785 0 0 1 0.4473,-3.21971 9.3679786,9.3679786 0 0 1 1.3419,-2.80617 5.7262824,5.7262824 0 0 1 1.84406,-1.78076 l 0.28273,0.90725 a 5.9330531,5.9330531 0 0 0 -1.77654,2.53189 11.001045,11.001045 0 0 0 -0.75957,3.81893 v 0.63297 a 11.081222,11.081222 0 0 0 1.04651,4.97094 5.9414928,5.9414928 0 0 0 1.49804,1.97065 l -0.28273,0.84396 a 5.9077343,5.9077343 0 0 1 -1.88204,-1.83984 10.304777,10.304777 0 0 1 -1.75966,-6.03011 z"
         id="path24566"
         style="stroke-width:0.421981" />
      <path
         d="m 416.44553,189.39633 0.0338,0.89038 a 2.9538671,2.9538671 0 0 1 2.38419,-1.04229 q 1.68792,0 2.29136,1.29126 a 3.0087247,3.0087247 0 0 1 1.04229,-0.93258 3.0804614,3.0804614 0 0 1 1.51491,-0.35868 q 2.6416,0 2.68802,2.79773 v 5.38026 h -1.37566 v -5.30008 a 1.8356174,1.8356174 0 0 0 -0.39244,-1.26595 1.7174628,1.7174628 0 0 0 -1.3208,-0.42198 1.7976391,1.7976391 0 0 0 -1.26594,0.45996 1.8440571,1.8440571 0 0 0 -0.58656,1.22375 v 5.32962 h -1.37987 v -5.28743 c 0,-1.16466 -0.56968,-1.75122 -1.71325,-1.75122 a 1.8398372,1.8398372 0 0 0 -1.84827,1.15201 v 5.86132 h -1.37144 v -8.01764 z"
         id="path24568"
         style="stroke-width:0.421981" />
      <path
         d="m 434.74263,191.38386 h -6.19891 v -1.19421 h 6.18625 z m 0,3.07624 h -6.19891 v -1.18577 h 6.18625 z"
         id="path24570"
         style="stroke-width:0.421981" />
      <path
         d="m 443.43543,192.81437 q 0,2.40952 -0.84396,3.58262 -0.84396,1.17311 -2.57408,1.17311 a 2.9538671,2.9538671 0 0 1 -2.55721,-1.14779 q -0.84396,-1.14357 -0.84396,-3.42226 v -1.8103 q 0,-2.37998 0.82286,-3.54042 0.82287,-1.16045 2.58253,-1.15623 1.74278,0 2.56564,1.11825 0.82287,1.11825 0.84396,3.44336 z m -1.38831,-1.87781 q 0,-1.73856 -0.4895,-2.53189 a 1.6879241,1.6879241 0 0 0 -1.54867,-0.79754 1.6626052,1.6626052 0 0 0 -1.53601,0.79332 4.9118591,4.9118591 0 0 0 -0.49794,2.44327 v 2.1943 c 0,1.16467 0.16879,2.02973 0.50638,2.58675 a 1.6879241,1.6879241 0 0 0 1.54023,0.84396 1.6583854,1.6583854 0 0 0 1.51069,-0.78488 4.8949798,4.8949798 0 0 0 0.51482,-2.47703 z"
         id="path24572"
         style="stroke-width:0.421981" />
      <path
         d="m 448.50343,193.10976 a 11.393488,11.393488 0 0 1 -0.42198,3.1733 9.3300004,9.3300004 0 0 1 -1.32924,2.79773 5.8486569,5.8486569 0 0 1 -1.86938,1.82718 l -0.29117,-0.84396 a 5.9879107,5.9879107 0 0 0 1.83562,-2.71756 11.680435,11.680435 0 0 0 0.70893,-4.09322 v -0.2363 a 12.309186,12.309186 0 0 0 -0.32493,-2.89479 9.8616964,9.8616964 0 0 0 -0.91148,-2.40108 5.5743693,5.5743693 0 0 0 -1.30814,-1.65416 l 0.29117,-0.84396 a 5.8613164,5.8613164 0 0 1 1.86516,1.81029 9.3764183,9.3764183 0 0 1 1.32502,2.79774 11.688874,11.688874 0 0 1 0.43042,3.27879 z"
         id="path24574"
         style="stroke-width:0.421981" />
      <path
         d="m 452.62618,228.58993 h -4.53207 v 4.7726 h -1.4052 v -10.80271 h 6.69262 v 1.16466 h -5.26633 v 3.705 h 4.53208 z"
         id="path24576"
         style="stroke-width:0.421981" />
      <path
         d="m 454.85846,223.20545 a 0.81864318,0.81864318 0 0 1 0.20255,-0.56124 0.911479,0.911479 0 0 1 1.21531,0 0.84396204,0.84396204 0 0 1 0.20677,0.56124 0.81442337,0.81442337 0 1 1 -1.62463,0 z m 1.48537,10.15708 h -1.37565 v -8.01764 h 1.37565 z"
         id="path24578"
         style="stroke-width:0.421981" />
      <path
         d="m 462.41614,226.56864 a 3.7387518,3.7387518 0 0 0 -0.67517,-0.0549 1.8060788,1.8060788 0 0 0 -1.8314,1.15201 v 5.69674 h -1.37143 v -8.01764 h 1.33346 v 0.92836 a 2.1394438,2.1394438 0 0 1 1.91579,-1.07605 1.4347355,1.4347355 0 0 1 0.60765,0.10127 z"
         id="path24580"
         style="stroke-width:0.421981" />
      <path
         d="m 468.34919,231.23153 a 1.0127544,1.0127544 0 0 0 -0.42198,-0.84397 4.0847763,4.0847763 0 0 0 -1.46005,-0.52747 6.848752,6.848752 0 0 1 -1.65417,-0.53592 2.3673135,2.3673135 0 0 1 -0.90726,-0.74268 1.7723203,1.7723203 0 0 1 -0.29116,-1.0212 2.0845862,2.0845862 0 0 1 0.84396,-1.68792 3.2745727,3.2745727 0 0 1 2.131,-0.67939 3.3378699,3.3378699 0 0 1 2.2154,0.70471 2.2322796,2.2322796 0 0 1 0.84397,1.80186 h -1.37988 a 1.2406242,1.2406242 0 0 0 -0.47684,-0.97056 1.7891995,1.7891995 0 0 0 -1.20687,-0.42198 1.8989146,1.8989146 0 0 0 -1.1731,0.32492 1.0380733,1.0380733 0 0 0 -0.42198,0.84397 0.84396204,0.84396204 0 0 0 0.39244,0.75112 4.8063638,4.8063638 0 0 0 1.42207,0.48106 7.4690641,7.4690641 0 0 1 1.66683,0.54858 2.4812484,2.4812484 0 0 1 0.94524,0.768 1.9031344,1.9031344 0 0 1 0.30804,1.09293 2.0508278,2.0508278 0 0 1 -0.84396,1.7259 3.6037179,3.6037179 0 0 1 -2.23228,0.64986 4.0383584,4.0383584 0 0 1 -1.68792,-0.34181 2.7681955,2.7681955 0 0 1 -1.16045,-0.95368 2.3040164,2.3040164 0 0 1 -0.42198,-1.32502 h 1.37144 a 1.4347355,1.4347355 0 0 0 0.55279,1.09715 2.1394438,2.1394438 0 0 0 1.363,0.42198 2.2111805,2.2111805 0 0 0 1.26594,-0.31226 0.97477616,0.97477616 0 0 0 0.41776,-0.84818 z"
         id="path24582"
         style="stroke-width:0.421981" />
      <path
         d="m 473.37077,223.39112 v 1.94533 h 1.50225 v 1.05917 h -1.50225 v 4.9836 a 1.1098101,1.1098101 0 0 0 0.20255,0.72581 0.84396204,0.84396204 0 0 0 0.68361,0.24053 3.3083312,3.3083312 0 0 0 0.64985,-0.0886 v 1.10559 a 4.0172593,4.0172593 0 0 1 -1.05073,0.14769 1.6879241,1.6879241 0 0 1 -1.38832,-0.55701 2.3884126,2.3884126 0 0 1 -0.4684,-1.57821 v -4.97938 h -1.46005 v -1.05917 h 1.46849 v -1.94533 z"
         id="path24584"
         style="stroke-width:0.421981" />
      <path
         d="m 440.1693,248.55385 h -1.43473 l -5.43512,-8.32569 v 8.32569 h -1.43052 v -10.80272 h 1.43052 l 5.452,8.35945 v -8.35945 h 1.41785 z"
         id="path24586"
         style="stroke-width:0.421981" />
      <path
         d="m 445.81119,248.70154 a 3.5108821,3.5108821 0 0 1 -2.65426,-1.07183 3.9708414,3.9708414 0 0 1 -1.02542,-2.86525 v -0.25319 a 4.781045,4.781045 0 0 1 0.45996,-2.13522 3.5488604,3.5488604 0 0 1 1.26595,-1.4685 3.2281548,3.2281548 0 0 1 1.77654,-0.52747 3.0002851,3.0002851 0 0 1 2.43061,1.02963 c 0.58233,0.68783 0.86928,1.68792 0.86928,2.95387 v 0.56967 h -5.43512 a 2.8314926,2.8314926 0 0 0 0.69205,1.91579 2.1732023,2.1732023 0 0 0 1.68792,0.73003 2.3884126,2.3884126 0 0 0 1.23219,-0.29539 3.1690775,3.1690775 0 0 0 0.88194,-0.78488 l 0.84396,0.65407 a 3.3758482,3.3758482 0 0 1 -3.0256,1.54867 z m -0.16879,-7.17368 a 1.8440571,1.8440571 0 0 0 -1.39676,0.60344 2.9538671,2.9538671 0 0 0 -0.69627,1.68792 h 4.02148 v -0.10549 a 2.5994031,2.5994031 0 0 0 -0.56546,-1.62041 1.7132429,1.7132429 0 0 0 -1.36299,-0.58656 z"
         id="path24588"
         style="stroke-width:0.421981" />
      <path
         d="m 450.20401,244.47329 a 4.7050884,4.7050884 0 0 1 0.86928,-2.98762 2.9960652,2.9960652 0 0 1 4.59115,-0.0675 l 0.0633,-0.89038 h 1.26594 v 7.83197 a 3.2661331,3.2661331 0 0 1 -0.92413,2.45593 3.4053868,3.4053868 0 0 1 -2.48125,0.89882 4.1776121,4.1776121 0 0 1 -1.68793,-0.37135 2.9538671,2.9538671 0 0 1 -1.26594,-1.01697 l 0.70893,-0.82287 a 2.6880191,2.6880191 0 0 0 2.16054,1.08872 2.1099051,2.1099051 0 0 0 1.56133,-0.56124 2.1774221,2.1774221 0 0 0 0.56124,-1.59087 v -0.70471 a 2.823053,2.823053 0 0 1 -2.24916,0.94946 2.7470964,2.7470964 0 0 1 -2.28292,-1.13513 4.979376,4.979376 0 0 1 -0.89038,-3.07624 z m 1.37988,0.15613 a 3.5910585,3.5910585 0 0 0 0.55701,2.13101 1.801859,1.801859 0 0 0 1.55711,0.77644 2.0086297,2.0086297 0 0 0 1.90736,-1.18154 v -3.6628 a 2.0339485,2.0339485 0 0 0 -1.8947,-1.14779 1.8271778,1.8271778 0 0 0 -1.56555,0.77645 3.9202037,3.9202037 0 0 0 -0.56123,2.30823 z"
         id="path24590"
         style="stroke-width:0.421981" />
      <path
         d="m 463.99013,248.55385 a 2.9201087,2.9201087 0 0 1 -0.19411,-0.84396 3.0593624,3.0593624 0 0 1 -2.28292,0.99587 2.8314926,2.8314926 0 0 1 -1.94533,-0.67095 2.1816419,2.1816419 0 0 1 -0.76379,-1.68792 2.2744777,2.2744777 0 0 1 0.95368,-1.94534 4.4940979,4.4940979 0 0 1 2.6838,-0.69204 h 1.33346 v -0.63298 a 1.5360109,1.5360109 0 0 0 -0.42198,-1.14356 1.7132429,1.7132429 0 0 0 -1.26594,-0.42199 2.0128495,2.0128495 0 0 0 -1.23219,0.36713 1.0929308,1.0929308 0 0 0 -0.49794,0.89882 H 458.977 a 1.9073542,1.9073542 0 0 1 0.42198,-1.16045 2.9538671,2.9538671 0 0 1 1.15622,-0.88616 3.8822254,3.8822254 0 0 1 1.60775,-0.32493 3.1606378,3.1606378 0 0 1 2.1732,0.69205 2.4939078,2.4939078 0 0 1 0.81443,1.91158 v 3.69233 a 4.5742743,4.5742743 0 0 0 0.28273,1.75966 v 0.11816 z m -2.27448,-1.04652 a 2.4052918,2.4052918 0 0 0 1.22375,-0.33336 2.0170693,2.0170693 0 0 0 0.84396,-0.86928 v -1.64573 h -1.05917 q -2.53189,0 -2.53189,1.47694 a 1.2659431,1.2659431 0 0 0 0.42198,1.00853 1.6626052,1.6626052 0 0 0 1.11825,0.3629 z"
         id="path24592"
         style="stroke-width:0.421981" />
      <path
         d="m 469.17628,238.58244 v 1.94533 h 1.49803 v 1.05917 h -1.49803 v 4.9836 a 1.1098101,1.1098101 0 0 0 0.20255,0.7258 0.84396204,0.84396204 0 0 0 0.68361,0.24053 3.3083312,3.3083312 0 0 0 0.64985,-0.0886 v 1.10559 a 4.0172593,4.0172593 0 0 1 -1.05074,0.14769 1.6879241,1.6879241 0 0 1 -1.38831,-0.55701 2.3884126,2.3884126 0 0 1 -0.4684,-1.57821 v -4.97938 h -1.46006 v -1.05917 h 1.44318 v -1.94533 z"
         id="path24594"
         style="stroke-width:0.421981" />
      <path
         d="m 472.28628,238.39676 a 0.81864318,0.81864318 0 0 1 0.20255,-0.56123 0.75956584,0.75956584 0 0 1 0.60765,-0.23209 0.77222527,0.77222527 0 0 1 0.60765,0.23209 0.84396204,0.84396204 0 0 1 0.20677,0.56123 0.7426866,0.7426866 0 0 1 -0.81442,0.78067 0.7848847,0.7848847 0 0 1 -0.60765,-0.22365 0.79332432,0.79332432 0 0 1 -0.20255,-0.55702 z m 1.48115,10.15709 h -1.37144 v -8.01764 h 1.37144 z"
         id="path24596"
         style="stroke-width:0.421981" />
      <path
         d="m 478.61177,246.69291 1.98753,-6.16514 h 1.4052 l -2.87791,8.01764 h -1.04651 l -2.90745,-8.01764 h 1.40097 z"
         id="path24598"
         style="stroke-width:0.421981" />
      <path
         d="m 486.55767,248.70154 a 3.5024425,3.5024425 0 0 1 -2.65426,-1.07183 3.9708414,3.9708414 0 0 1 -1.02541,-2.86525 v -0.25319 a 4.8359025,4.8359025 0 0 1 0.45574,-2.13522 3.5573,3.5573 0 0 1 1.26594,-1.4685 3.2197152,3.2197152 0 0 1 1.77654,-0.52747 3.0002851,3.0002851 0 0 1 2.43061,1.02963 q 0.86928,1.02963 0.86928,2.95387 v 0.56967 h -5.43089 a 2.8568115,2.8568115 0 0 0 0.69627,1.91579 2.1732023,2.1732023 0 0 0 1.68792,0.73003 2.3757531,2.3757531 0 0 0 1.22797,-0.29539 3.1268794,3.1268794 0 0 0 0.88616,-0.78488 l 0.84396,0.65407 a 3.3758482,3.3758482 0 0 1 -3.02983,1.54867 z m -0.16879,-7.17368 a 1.8356174,1.8356174 0 0 0 -1.39675,0.60344 2.9538671,2.9538671 0 0 0 -0.69627,1.68792 h 4.02148 v -0.10549 a 2.6247219,2.6247219 0 0 0 -0.56546,-1.62041 1.7216826,1.7216826 0 0 0 -1.363,-0.58656 z"
         id="path24600"
         style="stroke-width:0.421981" />
      <path
         d="m 451.38556,258.70671 a 6.7094982,6.7094982 0 0 1 -0.5317,2.7682 4.046798,4.046798 0 0 1 -1.51491,1.80608 4.1776121,4.1776121 0 0 1 -6.07653,-1.7892 6.3297153,6.3297153 0 0 1 -0.56123,-2.68802 v -0.78067 a 6.625102,6.625102 0 0 1 0.54013,-2.75131 4.0130395,4.0130395 0 0 1 3.79783,-2.46437 4.1818319,4.1818319 0 0 1 2.28714,0.62875 4.0383584,4.0383584 0 0 1 1.52757,1.81452 6.7516963,6.7516963 0 0 1 0.5317,2.77241 z m -1.41364,-0.70049 q 0,-1.91579 -0.77222,-2.95386 a 2.5318861,2.5318861 0 0 0 -2.16055,-1.02964 2.5065673,2.5065673 0 0 0 -2.1099,1.02964 4.7050884,4.7050884 0 0 0 -0.79755,2.85259 v 0.80176 a 4.8316827,4.8316827 0 0 0 0.78067,2.92433 2.7428766,2.7428766 0 0 0 4.29155,0.0591 4.8485619,4.8485619 0 0 0 0.78066,-2.88213 z"
         id="path24602"
         style="stroke-width:0.421981" />
      <path
         d="m 457.1878,256.95127 a 3.7725103,3.7725103 0 0 0 -0.67517,-0.0549 1.8060788,1.8060788 0 0 0 -1.8314,1.15201 v 5.69674 h -1.37144 v -8.01764 h 1.33346 l 0.0211,0.92836 a 2.1394438,2.1394438 0 0 1 1.91579,-1.07605 1.4347355,1.4347355 0 0 1 0.60766,0.10128 z"
         id="path24604"
         style="stroke-width:0.421981" />
      <path
         d="m 457.97268,259.66461 a 4.6797695,4.6797695 0 0 1 0.87772,-2.95387 2.7597559,2.7597559 0 0 1 2.29136,-1.12247 2.7892945,2.7892945 0 0 1 2.23228,0.96212 v -4.18183 h 1.37144 v 11.39348 h -1.26595 l -0.0675,-0.84396 a 2.7977342,2.7977342 0 0 1 -2.29136,1.00854 2.7259974,2.7259974 0 0 1 -2.27026,-1.14357 4.7472865,4.7472865 0 0 1 -0.88194,-2.97919 z m 1.37144,0.15613 a 3.5657396,3.5657396 0 0 0 0.56545,2.13522 1.8187382,1.8187382 0 0 0 1.55711,0.77223 2.0086297,2.0086297 0 0 0 1.90736,-1.17311 v -3.69233 a 2.0128495,2.0128495 0 0 0 -1.89048,-1.13513 1.8271778,1.8271778 0 0 0 -1.57399,0.77645 3.9202037,3.9202037 0 0 0 -0.56123,2.31667 z"
         id="path24606"
         style="stroke-width:0.421981" />
      <path
         d="m 470.20591,263.89286 a 3.5024425,3.5024425 0 0 1 -2.65426,-1.07183 3.9708414,3.9708414 0 0 1 -1.02963,-2.84838 v -0.25318 a 4.8359025,4.8359025 0 0 1 0.45574,-2.13523 3.578399,3.578399 0 0 1 1.26594,-1.46849 3.2408142,3.2408142 0 0 1 1.77654,-0.52748 3.0045049,3.0045049 0 0 1 2.43483,1.02963 q 0.86928,1.02964 0.86928,2.95387 v 0.56968 h -5.43934 a 2.8568115,2.8568115 0 0 0 0.69627,1.91579 2.1605428,2.1605428 0 0 0 1.68793,0.73003 2.379973,2.379973 0 0 0 1.23218,-0.29539 3.0551426,3.0551426 0 0 0 0.88194,-0.78488 l 0.84396,0.65407 a 3.3758482,3.3758482 0 0 1 -3.02138,1.53179 z m -0.17301,-7.17368 a 1.8356174,1.8356174 0 0 0 -1.39254,0.60343 2.9538671,2.9538671 0 0 0 -0.69627,1.68793 h 4.01726 v -0.1055 a 2.5994031,2.5994031 0 0 0 -0.56123,-1.62041 1.7259024,1.7259024 0 0 0 -1.36722,-0.58655 z"
         id="path24608"
         style="stroke-width:0.421981" />
      <path
         d="m 478.80166,256.95127 a 3.7387518,3.7387518 0 0 0 -0.67517,-0.0549 1.8060788,1.8060788 0 0 0 -1.83139,1.15201 v 5.69674 h -1.37144 v -8.01764 h 1.33346 v 0.92836 a 2.1394438,2.1394438 0 0 1 1.91579,-1.07605 1.4347355,1.4347355 0 0 1 0.60765,0.10128 z"
         id="path24610"
         style="stroke-width:0.421981" />
      <path
         d="m 438.98775,274.5521 a 11.612918,11.612918 0 0 1 0.4473,-3.21972 9.2835824,9.2835824 0 0 1 1.3419,-2.80195 5.6376664,5.6376664 0 0 1 1.84406,-1.78076 l 0.28273,0.90304 a 5.9330531,5.9330531 0 0 0 -1.77654,2.53188 11.12342,11.12342 0 0 0 -0.75957,3.82315 v 0.62875 a 11.081222,11.081222 0 0 0 1.04652,4.97094 5.9414928,5.9414928 0 0 0 1.49803,1.97065 l -0.28273,0.84396 a 5.9288333,5.9288333 0 0 1 -1.88203,-1.83983 10.296337,10.296337 0 0 1 -1.75967,-6.03011 z"
         id="path24612"
         style="stroke-width:0.421981" />
      <path
         d="m 445.52424,270.9104 0.038,0.89038 a 2.9538671,2.9538671 0 0 1 2.37997,-1.03807 q 1.68793,0 2.29136,1.26594 a 3.046703,3.046703 0 0 1 1.04229,-0.93258 3.0804614,3.0804614 0 0 1 1.51491,-0.35446 q 2.64582,0 2.68802,2.79351 v 5.38026 h -1.37144 v -5.27476 a 1.8440571,1.8440571 0 0 0 -0.39666,-1.26594 1.7174628,1.7174628 0 0 0 -1.3208,-0.42198 1.822958,1.822958 0 0 0 -1.26594,0.45573 1.8482769,1.8482769 0 0 0 -0.58655,1.22797 v 5.3254 h -1.37988 v -5.28742 q 0,-1.747 -1.71325,-1.747 a 1.8356174,1.8356174 0 0 0 -1.84827,1.14778 v 5.86132 h -1.37144 v -8.01764 z"
         id="path24614"
         style="stroke-width:0.421981" />
      <path
         d="m 463.82134,272.89793 h -6.18624 v -1.1942 h 6.18624 z m 0,3.07624 h -6.18624 v -1.18576 h 6.18624 z"
         id="path24616"
         style="stroke-width:0.421981" />
      <path
         d="m 468.74164,274.90656 h -3.6206 v -1.11825 h 3.6206 z"
         id="path24618"
         style="stroke-width:0.421981" />
      <path
         d="m 474.4426,278.93648 h -1.37988 v -9.14855 l -2.76397,1.01698 v -1.24485 l 3.92864,-1.47693 h 0.21521 z"
         id="path24620"
         style="stroke-width:0.421981" />
      <path
         d="m 481.77241,274.62384 a 11.393488,11.393488 0 0 1 -0.42198,3.17329 9.33844,9.33844 0 0 1 -1.32502,2.80196 5.8824154,5.8824154 0 0 1 -1.8736,1.82295 l -0.29116,-0.84396 a 5.9077343,5.9077343 0 0 0 1.83561,-2.71756 11.671995,11.671995 0 0 0 0.70893,-4.08899 V 274.531 a 12.309186,12.309186 0 0 0 -0.32492,-2.89479 9.8574766,9.8574766 0 0 0 -0.89882,-2.37997 5.5828089,5.5828089 0 0 0 -1.31236,-1.65417 l 0.29116,-0.84396 a 5.7305023,5.7305023 0 0 1 1.86516,1.8103 9.4186164,9.4186164 0 0 1 1.32924,2.79351 11.870326,11.870326 0 0 1 0.41776,3.26192 z"
         id="path24622"
         style="stroke-width:0.421981" />
      <path
         d="m 20.728607,186.10066 h -1.422076 v -10.7985 h 1.422076 z"
         id="path24624"
         style="stroke-width:0.421981" />
      <path
         d="m 24.416721,178.0788 0.04642,1.00853 a 2.9201087,2.9201087 0 0 1 2.401072,-1.16045 q 2.531886,0 2.565645,2.8737 v 5.30008 H 28.05842 v -5.30852 a 1.8313976,1.8313976 0 0 0 -0.396663,-1.26595 1.578209,1.578209 0 0 0 -1.211085,-0.42198 1.9622117,1.9622117 0 0 0 -1.173107,0.35869 2.3841928,2.3841928 0 0 0 -0.784885,0.93257 v 5.71785 h -1.37566 v -8.01764 z"
         id="path24626"
         style="stroke-width:0.421981" />
      <path
         d="m 34.721498,185.1301 a 1.9833108,1.9833108 0 0 0 1.265943,-0.42198 1.5908684,1.5908684 0 0 0 0.607653,-1.11403 h 1.295481 a 2.4517097,2.4517097 0 0 1 -0.472618,1.31236 3.1057803,3.1057803 0 0 1 -1.168888,0.99588 3.3758482,3.3758482 0 0 1 -1.54445,0.37134 3.3083312,3.3083312 0 0 1 -2.607843,-1.09715 4.3464045,4.3464045 0 0 1 -0.970556,-2.99185 v -0.22787 a 4.8190232,4.8190232 0 0 1 0.421981,-2.08458 3.2998916,3.2998916 0 0 1 1.236404,-1.41786 3.4940028,3.4940028 0 0 1 1.903134,-0.50638 3.223935,3.223935 0 0 1 2.244939,0.81021 2.8863502,2.8863502 0 0 1 0.949458,2.1099 h -1.295482 a 1.8989146,1.8989146 0 0 0 -0.590773,-1.26594 1.8313976,1.8313976 0 0 0 -1.308142,-0.49794 1.9200136,1.9200136 0 0 0 -1.620407,0.75113 3.5319811,3.5319811 0 0 0 -0.573894,2.17742 v 0.25741 a 3.4813434,3.4813434 0 0 0 0.569674,2.13944 1.9326731,1.9326731 0 0 0 1.658386,0.70049 z"
         id="path24628"
         style="stroke-width:0.421981" />
      <path
         d="m 39.477224,175.94779 a 0.84396204,0.84396204 0 0 1 0.202551,-0.56545 0.76800546,0.76800546 0 0 1 0.603433,-0.22787 0.7848847,0.7848847 0 0 1 0.611872,0.22787 0.84396204,0.84396204 0 0 1 0.206771,0.56545 0.7426866,0.7426866 0 0 1 -0.818643,0.78067 0.78066489,0.78066489 0 0 1 -0.603433,-0.22365 0.79332432,0.79332432 0 0 1 -0.202551,-0.55702 z m 1.481153,10.15287 h -1.371438 v -8.01764 h 1.371438 z"
         id="path24630"
         style="stroke-width:0.421981" />
      <path
         d="m 42.806654,182.02432 a 4.7008686,4.7008686 0 0 1 0.873501,-2.95387 2.9538671,2.9538671 0 0 1 4.523636,-0.16035 v -4.18605 h 1.375659 v 11.39349 h -1.265944 l -0.06752,-0.84397 a 2.7977342,2.7977342 0 0 1 -2.291357,1.00854 2.7470964,2.7470964 0 0 1 -2.274478,-1.14357 4.7557261,4.7557261 0 0 1 -0.877721,-2.98341 z m 1.371438,0.15613 a 3.5657396,3.5657396 0 0 0 0.561235,2.13523 1.8271778,1.8271778 0 0 0 1.56133,0.77222 2.00019,2.00019 0 0 0 1.903134,-1.17311 v -3.69655 a 2.0170693,2.0170693 0 0 0 -1.890475,-1.13513 1.8356174,1.8356174 0 0 0 -1.573989,0.78067 3.9202037,3.9202037 0 0 0 -0.561235,2.31667 z"
         id="path24632"
         style="stroke-width:0.421981" />
      <path
         d="m 55.035664,186.25257 a 3.5108821,3.5108821 0 0 1 -2.65426,-1.07183 3.9835008,3.9835008 0 0 1 -1.025414,-2.86947 v -0.25319 a 4.8190232,4.8190232 0 0 1 0.455739,-2.13101 3.5868387,3.5868387 0 0 1 1.265943,-1.46849 3.1986161,3.1986161 0 0 1 1.77654,-0.5317 3.0002851,3.0002851 0 0 1 2.430611,1.03386 q 0.869281,1.02963 0.869281,2.95386 v 0.5739 h -5.422456 a 2.8314926,2.8314926 0 0 0 0.692049,1.91579 2.1858617,2.1858617 0 0 0 1.687924,0.73003 2.3884126,2.3884126 0 0 0 1.232184,-0.29539 3.1690775,3.1690775 0 0 0 0.881941,-0.78488 l 0.843962,0.64985 a 3.3758482,3.3758482 0 0 1 -3.034044,1.54867 z m -0.168792,-7.17368 a 1.8271778,1.8271778 0 0 0 -1.396757,0.60344 2.9243285,2.9243285 0 0 0 -0.696269,1.68792 h 4.0046 v -0.10128 a 2.6247219,2.6247219 0 0 0 -0.565455,-1.6204 1.7132429,1.7132429 0 0 0 -1.346119,-0.59078 z"
         id="path24634"
         style="stroke-width:0.421981" />
      <path
         d="m 61.053113,178.0788 0.0422,1.00853 a 2.9538671,2.9538671 0 0 1 2.405291,-1.16045 q 2.531887,0 2.565645,2.8737 v 5.30008 H 64.69481 v -5.30852 a 1.8482769,1.8482769 0 0 0 -0.396662,-1.26595 1.5866486,1.5866486 0 0 0 -1.215306,-0.42198 1.9495523,1.9495523 0 0 0 -1.168887,0.35869 2.4306107,2.4306107 0 0 0 -0.789105,0.93257 v 5.71785 h -1.371438 v -8.01764 z"
         id="path24636"
         style="stroke-width:0.421981" />
      <path
         d="m 69.999111,176.13346 v 1.94534 h 1.498033 v 1.05917 h -1.498033 v 4.9836 a 1.1224695,1.1224695 0 0 0 0.198331,0.72158 0.84396204,0.84396204 0 0 0 0.683609,0.24475 3.3758482,3.3758482 0 0 0 0.654071,-0.0886 v 1.12669 a 4.0721168,4.0721168 0 0 1 -1.054953,0.14769 1.7132429,1.7132429 0 0 1 -1.388317,-0.55702 2.3926324,2.3926324 0 0 1 -0.464179,-1.58242 v -4.99626 h -1.464274 v -1.05917 h 1.464274 v -1.94534 z"
         id="path24638"
         style="stroke-width:0.421981" />
      <path
         d="m 79.405068,182.69949 0.206771,1.42208 0.303826,-1.26595 2.135224,-7.53658 h 1.202646 l 2.084586,7.53658 0.295387,1.30392 0.232089,-1.45161 1.687925,-7.38889 h 1.430515 l -2.616282,10.7985 h -1.316581 l -2.22384,-7.86995 -0.173012,-0.84396 -0.168793,0.84396 -2.308236,7.86995 h -1.295481 l -2.612063,-10.7985 h 1.422076 z"
         id="path24640"
         style="stroke-width:0.421981" />
      <path
         d="m 91.710035,179.04935 a 2.9201087,2.9201087 0 0 1 2.371533,-1.12247 q 2.531886,0 2.569864,2.8737 v 5.30008 h -1.375658 v -5.30852 a 1.8313976,1.8313976 0 0 0 -0.396662,-1.26595 1.578209,1.578209 0 0 0 -1.211085,-0.42198 1.9622117,1.9622117 0 0 0 -1.173108,0.35869 2.4179512,2.4179512 0 0 0 -0.784884,0.93257 v 5.71785 h -1.371439 v -11.39349 h 1.371439 z"
         id="path24642"
         style="stroke-width:0.421981" />
      <path
         d="m 98.7107,175.94779 a 0.81442337,0.81442337 0 0 1 0.20677,-0.56545 0.76800546,0.76800546 0 0 1 0.603433,-0.22787 0.7848847,0.7848847 0 0 1 0.607657,0.22787 0.81442337,0.81442337 0 0 1 0.20677,0.56545 0.77644508,0.77644508 0 0 1 -0.20677,0.55702 0.79754413,0.79754413 0 0 1 -0.607657,0.22365 0.7426866,0.7426866 0 0 1 -0.810203,-0.78067 z m 1.48537,10.15287 h -1.371435 v -8.01764 h 1.371435 z"
         id="path24644"
         style="stroke-width:0.421981" />
      <path
         d="m 104.25131,176.13346 v 1.94534 h 1.49803 v 1.05917 h -1.49803 v 4.9836 a 1.0971507,1.0971507 0 0 0 0.21099,0.73846 0.84396204,0.84396204 0 0 0 0.68361,0.24475 3.3083312,3.3083312 0 0 0 0.64985,-0.0886 v 1.10981 a 4.0425782,4.0425782 0 0 1 -1.05073,0.14769 1.6879241,1.6879241 0 0 1 -1.38832,-0.55702 2.3926324,2.3926324 0 0 1 -0.4684,-1.58242 v -4.99626 h -1.46005 v -1.05917 h 1.46005 v -1.94534 z"
         id="path24646"
         style="stroke-width:0.421981" />
      <path
         d="m 110.6823,186.25257 a 3.5151019,3.5151019 0 0 1 -2.65426,-1.07183 3.9835008,3.9835008 0 0 1 -1.03385,-2.85259 v -0.25319 a 4.8190232,4.8190232 0 0 1 0.45996,-2.13101 3.5488604,3.5488604 0 0 1 1.26594,-1.46849 3.1986161,3.1986161 0 0 1 1.77654,-0.5317 3.0002851,3.0002851 0 0 1 2.44749,1.00854 c 0.58233,0.68783 0.86928,1.68792 0.86928,2.95387 v 0.57389 h -5.43512 a 2.8314926,2.8314926 0 0 0 0.69205,1.91579 2.1858617,2.1858617 0 0 0 1.68793,0.73003 2.3884126,2.3884126 0 0 0 1.23218,-0.29539 3.1690775,3.1690775 0 0 0 0.88194,-0.78488 l 0.84396,0.64985 a 3.3758482,3.3758482 0 0 1 -3.03404,1.55711 z m -0.16879,-7.17368 a 1.8356174,1.8356174 0 0 0 -1.39676,0.60344 2.9243285,2.9243285 0 0 0 -0.69627,1.68792 h 4.02148 v -0.10128 a 2.5994031,2.5994031 0 0 0 -0.56545,-1.6204 1.7132429,1.7132429 0 0 0 -1.363,-0.59078 z"
         id="path24648"
         style="stroke-width:0.421981" />
      <path
         d="m 120.80985,184.94021 h 5.11863 v 1.16045 h -6.54915 v -10.7985 h 1.43052 z"
         id="path24650"
         style="stroke-width:0.421981" />
      <path
         d="m 127.34211,175.94779 a 0.84396204,0.84396204 0 0 1 0.20677,-0.56545 0.76800546,0.76800546 0 0 1 0.60344,-0.22787 0.7848847,0.7848847 0 0 1 0.60765,0.22787 0.81442337,0.81442337 0 0 1 0.20677,0.56545 0.77644508,0.77644508 0 0 1 -0.20677,0.55702 0.79754413,0.79754413 0 0 1 -0.60765,0.22365 0.78066489,0.78066489 0 0 1 -0.60344,-0.22365 0.79754413,0.79754413 0 0 1 -0.20677,-0.55702 z m 1.48538,10.15287 h -1.37144 v -8.01764 h 1.37144 z"
         id="path24652"
         style="stroke-width:0.421981" />
      <path
         d="m 130.69686,182.02432 a 4.6966488,4.6966488 0 0 1 0.86928,-2.98763 2.9918454,2.9918454 0 0 1 4.59116,-0.0717 l 0.0675,-0.88616 h 1.26595 v 7.83197 a 3.2661331,3.2661331 0 0 1 -0.92414,2.45592 3.4222661,3.4222661 0 0 1 -2.48125,0.8946 4.1058753,4.1058753 0 0 1 -1.68793,-0.37134 2.8947898,2.8947898 0 0 1 -1.26594,-1.01275 l 0.70893,-0.84397 a 2.6837993,2.6837993 0 0 0 2.16054,1.09294 2.1099051,2.1099051 0 0 0 1.56133,-0.56546 2.1605428,2.1605428 0 0 0 0.56124,-1.58665 v -0.68783 a 2.823053,2.823053 0 0 1 -2.24916,0.94946 2.7470964,2.7470964 0 0 1 -2.28292,-1.13513 4.9878157,4.9878157 0 0 1 -0.8946,-3.07624 z m 1.37988,0.15613 a 3.5910585,3.5910585 0 0 0 0.55701,2.13101 1.8145184,1.8145184 0 0 0 1.55711,0.77644 2.0170693,2.0170693 0 0 0 1.90736,-1.18154 v -3.6628 a 2.0339485,2.0339485 0 0 0 -1.8947,-1.15201 1.8313976,1.8313976 0 0 0 -1.56555,0.78067 3.9202037,3.9202037 0 0 0 -0.56123,2.30823 z"
         id="path24654"
         style="stroke-width:0.421981" />
      <path
         d="m 140.91724,179.04935 a 2.9201087,2.9201087 0 0 1 2.37575,-1.12247 q 2.53189,0 2.56565,2.8737 v 5.30008 h -1.37144 v -5.30852 a 1.8482769,1.8482769 0 0 0 -0.39666,-1.26595 1.5950883,1.5950883 0 0 0 -1.21531,-0.42198 1.9495523,1.9495523 0 0 0 -1.16888,0.35869 2.4306107,2.4306107 0 0 0 -0.78911,0.93257 v 5.71785 h -1.37144 v -11.39349 h 1.37144 z"
         id="path24656"
         style="stroke-width:0.421981" />
      <path
         d="m 149.77462,176.13346 v 1.94534 h 1.49804 v 1.05917 h -1.49804 v 4.9836 a 1.1224695,1.1224695 0 0 0 0.19833,0.72158 0.84396204,0.84396204 0 0 0 0.68361,0.24475 3.3420897,3.3420897 0 0 0 0.65407,-0.0886 v 1.12669 a 4.0721168,4.0721168 0 0 1 -1.05495,0.14769 1.6879241,1.6879241 0 0 1 -1.3841,-0.55702 2.3926324,2.3926324 0 0 1 -0.4684,-1.58242 v -4.99626 h -1.46005 v -1.05917 h 1.46005 v -1.94534 z"
         id="path24658"
         style="stroke-width:0.421981" />
      <path
         d="m 194.80422,190.94922 a 2.4812484,2.4812484 0 0 0 0.13503,0.53169 3.5235415,3.5235415 0 0 0 0.48528,1.0634 0.3713433,0.3713433 0 0 0 0.30383,0.12237 c 0.37978,0 0.59499,-0.37978 0.64141,-1.15623 h 0.37978 a 3.5108821,3.5108821 0 0 1 -0.42198,1.79342 1.312361,1.312361 0 0 1 -1.16889,0.73003 c -0.70049,0 -1.23218,-0.39666 -1.59509,-1.17311 a 3.223935,3.223935 0 0 1 -4.98359,0.0464 4.1987111,4.1987111 0 0 1 0.28694,-5.32962 3.3252104,3.3252104 0 0 1 2.38842,-0.91148 2.7597559,2.7597559 0 0 1 2.71755,1.83562 v 0 l 0.44309,-1.65417 h 2.33777 z m -2.41373,-2.48969 c -0.30805,-0.88194 -0.67095,-1.3208 -1.09715,-1.3208 a 1.0591724,1.0591724 0 0 0 -1.07606,0.84396 8.3172459,8.3172459 0 0 0 -0.22787,2.33778 c 0,1.29126 0.1055,2.1732 0.31649,2.65848 a 0.92413843,0.92413843 0 0 0 0.89882,0.62031 c 0.39244,0 0.77222,-0.34603 1.12247,-1.06339 a 6.1102852,6.1102852 0 0 0 0.5317,-1.68793 8.3805431,8.3805431 0 0 0 -0.4684,-2.38841 z"
         id="path24660"
         style="stroke-width:0.421981" />
      <path
         d="m 333.26463,220.47945 a 2.333555,2.333555 0 0 0 0.13925,0.5317 3.4729038,3.4729038 0 0 0 0.48528,1.06339 0.36290368,0.36290368 0 0 0 0.30383,0.12237 c 0.37978,0 0.59077,-0.37978 0.63719,-1.15622 h 0.37978 a 3.5108821,3.5108821 0 0 1 -0.42198,1.79341 1.2997015,1.2997015 0 0 1 -1.16889,0.73003 c -0.70048,0 -1.23218,-0.39666 -1.59508,-1.17311 a 3.223935,3.223935 0 0 1 -4.9836,0.0464 4.1902715,4.1902715 0 0 1 0.29117,-5.32962 3.3083312,3.3083312 0 0 1 2.38419,-0.91148 2.7555361,2.7555361 0 0 1 2.71756,1.83562 v 0 l 0.42198,-1.65417 h 2.33777 z m -2.41373,-2.48969 c -0.30383,-0.88194 -0.67095,-1.32502 -1.09293,-1.32502 a 1.067612,1.067612 0 0 0 -1.08027,0.84396 8.3721034,8.3721034 0 0 0 -0.22787,2.342 c 0,1.29126 0.10549,2.16898 0.3207,2.65848 a 0.91569881,0.91569881 0 0 0 0.8946,0.62031 c 0.39666,0 0.77645,-0.35024 1.12247,-1.06339 a 5.8402173,5.8402173 0 0 0 0.5317,-1.68793 8.2370695,8.2370695 0 0 0 -0.4684,-2.38841 z"
         id="path24662"
         style="stroke-width:0.421981" />
      <path
         d="m 296.65356,179.07467 c 1.30392,0.39666 1.95799,1.3208 1.95799,2.78086 a 3.6332566,3.6332566 0 0 1 -1.10559,2.73443 3.2534737,3.2534737 0 0 1 -2.32512,0.91148 2.6078427,2.6078427 0 0 1 -1.41363,-0.39666 v 1.0212 a 6.5744643,6.5744643 0 0 1 -0.30383,2.29135 h -2.10991 a 5.7009636,5.7009636 0 0 0 0.32071,-2.29135 v -5.86554 a 10.22882,10.22882 0 0 1 0.31649,-2.81039 4.557395,4.557395 0 0 1 1.05073,-1.79342 3.0045049,3.0045049 0 0 1 2.29136,-0.84397 2.7892945,2.7892945 0 0 1 1.91579,0.67095 2.1099051,2.1099051 0 0 1 0.72581,1.68793 2.0719268,2.0719268 0 0 1 -1.26595,1.92845 z m -2.88635,5.11863 a 1.3587789,1.3587789 0 0 0 1.29126,0.84396 1.0633922,1.0633922 0 0 0 1.08027,-0.77644 7.7011536,7.7011536 0 0 0 0.22787,-2.26182 4.2535687,4.2535687 0 0 0 -0.45574,-2.1099 c -0.19833,-0.36291 -0.39666,-0.56124 -0.56545,-0.56124 l -0.64986,0.13926 c -0.42198,0 -0.60765,-0.13926 -0.60765,-0.39667 0,-0.25741 0.24053,-0.42198 0.72581,-0.42198 l 0.68361,0.13504 c 0.10971,0 0.19833,-0.16458 0.27429,-0.48528 a 3.0340435,3.0340435 0 0 0 0.076,-0.75957 4.6417912,4.6417912 0 0 0 -0.21099,-1.53601 c -0.18145,-0.51482 -0.42198,-0.77222 -0.77644,-0.77222 a 0.87350071,0.87350071 0 0 0 -0.8946,0.66673 5.8570966,5.8570966 0 0 0 -0.19833,1.85249 z"
         id="path24664"
         style="stroke-width:0.421981" />
      <path
         d="m 100.60539,251.07729 a 3.3252104,3.3252104 0 0 1 -1.531787,1.17733 6.2284399,6.2284399 0 0 1 -2.287137,0.38822 4.4392403,4.4392403 0 0 1 -2.346214,-0.62031 4.1143149,4.1143149 0 0 1 -1.582429,-1.75544 6.046988,6.046988 0 0 1 -0.573894,-2.65004 v -0.94102 c 0,-1.62884 0.379783,-2.88635 1.135129,-3.79783 a 3.9624018,3.9624018 0 0 1 3.202836,-1.34612 4.1100951,4.1100951 0 0 1 2.721777,0.84397 3.7598509,3.7598509 0 0 1 1.265939,2.45171 h -1.426292 q -0.396662,-2.15211 -2.531886,-2.15211 a 2.5318861,2.5318861 0 0 0 -2.168982,1.00854 q -0.738467,1.00431 -0.746907,2.91167 v 0.88616 a 4.6122525,4.6122525 0 0 0 0.843963,2.89057 2.6964587,2.6964587 0 0 0 2.244939,1.07183 4.9920355,4.9920355 0 0 0 1.405196,-0.17723 2.1394438,2.1394438 0 0 0 0.957897,-0.57812 v -2.42217 h -2.498127 v -1.16045 h 3.915979 z"
         id="path24666"
         style="stroke-width:0.421981" />
      <path
         d="m 106.64394,245.70126 a 4.2198102,4.2198102 0 0 0 -0.67517,-0.0549 1.8060788,1.8060788 0 0 0 -1.83139,1.15201 v 5.69674 h -1.363 v -8.01764 h 1.33768 l 0.0211,0.92836 a 2.1394438,2.1394438 0 0 1 1.91579,-1.07605 1.4347355,1.4347355 0 0 1 0.60765,0.10127 z"
         id="path24668"
         style="stroke-width:0.421981" />
      <path
         d="m 107.39085,248.40615 a 4.734627,4.734627 0 0 1 0.46418,-2.1099 3.4475849,3.4475849 0 0 1 1.29126,-1.45584 3.5108821,3.5108821 0 0 1 1.88626,-0.51059 3.3758482,3.3758482 0 0 1 2.65426,1.13513 4.3632837,4.3632837 0 0 1 1.01275,3.01716 v 0.0971 a 4.7726053,4.7726053 0 0 1 -0.45152,2.1099 3.3758482,3.3758482 0 0 1 -1.26594,1.45162 3.5530802,3.5530802 0 0 1 -1.9158,0.51903 3.3758482,3.3758482 0 0 1 -2.64582,-1.13513 4.3379649,4.3379649 0 0 1 -1.01275,-3.0045 z m 1.37988,0.16458 a 3.4307057,3.4307057 0 0 0 0.62031,2.14366 2.1099051,2.1099051 0 0 0 3.32099,0 3.7514113,3.7514113 0 0 0 0.61609,-2.29558 3.4349255,3.4349255 0 0 0 -0.62875,-2.13944 2.00019,2.00019 0 0 0 -1.66682,-0.81864 1.9664316,1.9664316 0 0 0 -1.63729,0.8102 3.7260924,3.7260924 0 0 0 -0.62453,2.30824 z"
         id="path24670"
         style="stroke-width:0.421981" />
      <path
         d="m 116.05412,248.40615 a 4.734627,4.734627 0 0 1 0.46418,-2.1099 3.4053868,3.4053868 0 0 1 3.18174,-1.96643 3.3758482,3.3758482 0 0 1 2.65004,1.13513 4.3632837,4.3632837 0 0 1 1.01275,3.01716 v 0.0971 a 4.8274629,4.8274629 0 0 1 -0.4473,2.1099 3.4180463,3.4180463 0 0 1 -1.28704,1.45162 3.5404208,3.5404208 0 0 1 -1.91579,0.51903 3.3758482,3.3758482 0 0 1 -2.64583,-1.13513 4.3379649,4.3379649 0 0 1 -1.01275,-3.0045 z m 1.37988,0.16458 a 3.4307057,3.4307057 0 0 0 0.62031,2.14366 2.1099051,2.1099051 0 0 0 3.32099,0 3.7514113,3.7514113 0 0 0 0.61609,-2.29558 3.4349255,3.4349255 0 0 0 -0.62875,-2.13944 2.0845862,2.0845862 0 0 0 -3.30411,0 3.7260924,3.7260924 0 0 0 -0.62453,2.2998 z"
         id="path24672"
         style="stroke-width:0.421981" />
      <path
         d="m 127.62062,250.63421 1.98753,-6.16514 h 1.40098 l -2.87791,8.01764 h -1.04652 l -2.90745,-8.01764 h 1.3841 z"
         id="path24674"
         style="stroke-width:0.421981" />
      <path
         d="m 135.56652,252.64284 a 3.5193217,3.5193217 0 0 1 -2.65848,-1.07183 3.9708414,3.9708414 0 0 1 -1.01697,-2.86525 v -0.25319 a 4.8063638,4.8063638 0 0 1 0.45574,-2.131 3.5277613,3.5277613 0 0 1 1.26594,-1.4685 3.2070558,3.2070558 0 0 1 1.77654,-0.53169 3.0087247,3.0087247 0 0 1 2.43483,1.02963 q 0.86506,1.03386 0.84396,2.95387 v 0.56967 h -5.40979 a 2.8652511,2.8652511 0 0 0 0.69204,1.92002 2.1858617,2.1858617 0 0 0 1.68793,0.73002 2.3884126,2.3884126 0 0 0 1.23218,-0.2996 3.1100001,3.1100001 0 0 0 0.88194,-0.78489 l 0.84397,0.65407 a 3.3758482,3.3758482 0 0 1 -3.02983,1.54867 z m -0.17301,-7.17367 a 1.8356174,1.8356174 0 0 0 -1.39254,0.57811 2.9538671,2.9538671 0 0 0 -0.70049,1.68792 h 4.02148 v -0.10549 a 2.6247219,2.6247219 0 0 0 -0.56123,-1.62041 1.7259024,1.7259024 0 0 0 -1.36722,-0.56123 z"
         id="path24676"
         style="stroke-width:0.421981" />
      <path
         d="m 81.173169,262.87166 a 6.6630803,6.6630803 0 0 1 -2.666921,-1.29548 2.4812484,2.4812484 0 0 1 -0.843962,-1.89469 2.6162823,2.6162823 0 0 1 1.016975,-2.10991 4.0552376,4.0552376 0 0 1 2.65426,-0.84396 4.4181413,4.4181413 0 0 1 1.983311,0.42198 3.2619133,3.2619133 0 0 1 1.350339,1.18999 3.0129445,3.0129445 0 0 1 0.476839,1.65416 h -1.430516 a 1.9579919,1.9579919 0 0 0 -0.624532,-1.54445 2.5318861,2.5318861 0 0 0 -1.755441,-0.56545 2.6162823,2.6162823 0 0 0 -1.645726,0.46418 1.55711,1.55711 0 0 0 -0.586553,1.29126 1.3967572,1.3967572 0 0 0 0.557015,1.11825 5.536391,5.536391 0 0 0 1.907354,0.84396 8.8616014,8.8616014 0 0 1 2.109905,0.84396 3.2112756,3.2112756 0 0 1 1.130909,1.06339 2.7175578,2.7175578 0 0 1 0.367124,1.43474 2.5318861,2.5318861 0 0 1 -1.025414,2.10991 4.3632837,4.3632837 0 0 1 -2.738657,0.7891 5.1186298,5.1186298 0 0 1 -2.076147,-0.42198 3.4771236,3.4771236 0 0 1 -1.485373,-1.16889 2.8357125,2.8357125 0 0 1 -0.523256,-1.68792 h 1.430515 a 1.8651561,1.8651561 0 0 0 0.721588,1.54867 3.067802,3.067802 0 0 0 1.932673,0.56545 2.7977342,2.7977342 0 0 0 1.730122,-0.45996 1.4938128,1.4938128 0 0 0 0.599213,-1.26594 1.4727138,1.4727138 0 0 0 -0.557015,-1.22796 6.4394304,6.4394304 0 0 0 -2.008629,-0.85241 z"
         id="path24678"
         style="stroke-width:0.421981" />
      <path
         d="m 93.570971,263.77048 a 4.8190232,4.8190232 0 0 1 -0.843962,2.95387 2.6837993,2.6837993 0 0 1 -2.270258,1.11825 2.9538671,2.9538671 0 0 1 -2.299797,-0.92836 v 3.86535 h -1.371438 v -11.1192 h 1.265943 l 0.06752,0.89038 a 2.823053,2.823053 0 0 1 2.329335,-1.03808 2.7386568,2.7386568 0 0 1 2.287137,1.08872 4.8570015,4.8570015 0 0 1 0.843962,3.03404 z m -1.375658,-0.15613 a 3.5319811,3.5319811 0 0 0 -0.578114,-2.14366 1.8567165,1.8567165 0 0 0 -1.586649,-0.78489 2.0170693,2.0170693 0 0 0 -1.869376,1.10559 v 3.83581 a 2.0212891,2.0212891 0 0 0 1.886255,1.09715 1.8482769,1.8482769 0 0 0 1.56555,-0.78488 3.8611263,3.8611263 0 0 0 0.582334,-2.33356 z"
         id="path24680"
         style="stroke-width:0.421981" />
      <path
         d="m 100.26781,267.68647 a 2.8863502,2.8863502 0 0 1 -0.19411,-0.84396 3.0551426,3.0551426 0 0 1 -2.282919,0.99165 2.8441521,2.8441521 0 0 1 -1.949552,-0.67095 2.1732023,2.1732023 0 0 1 -0.759566,-1.68792 2.2829173,2.2829173 0 0 1 0.953677,-1.94956 4.5236365,4.5236365 0 0 1 2.683799,-0.69204 h 1.333461 v -0.63298 a 1.5360109,1.5360109 0 0 0 -0.421982,-1.14356 1.7174628,1.7174628 0 0 0 -1.265943,-0.42199 1.9748712,1.9748712 0 0 0 -1.227965,0.37135 1.0802714,1.0802714 0 0 0 -0.497937,0.8946 h -1.379878 a 1.9073542,1.9073542 0 0 1 0.421981,-1.16045 2.9538671,2.9538671 0 0 1 1.156228,-0.88616 3.9370829,3.9370829 0 0 1 1.607748,-0.32493 3.1817369,3.1817369 0 0 1 2.173198,0.69205 2.5318861,2.5318861 0 0 1 0.81443,1.91158 v 3.69233 a 4.4814384,4.4814384 0 0 0 0.28272,1.75966 v 0.11816 z m -2.278698,-1.04652 a 2.3926324,2.3926324 0 0 0 1.223745,-0.33336 2.0044098,2.0044098 0 0 0 0.843963,-0.86928 v -1.64573 h -1.080272 c -1.687924,0 -2.531886,0.49372 -2.531886,1.47694 a 1.2659431,1.2659431 0 0 0 0.421981,1.00853 1.6879241,1.6879241 0 0 0 1.122469,0.3629 z"
         id="path24682"
         style="stroke-width:0.421981" />
      <path
         d="m 106.79586,266.72435 a 1.9875306,1.9875306 0 0 0 1.26594,-0.4473 1.5528902,1.5528902 0 0 0 0.60765,-1.10981 h 1.2997 a 2.5065673,2.5065673 0 0 1 -0.44308,1.30392 3.0931209,3.0931209 0 0 1 -1.16888,0.99166 3.5615198,3.5615198 0 0 1 -4.1523,-0.72159 4.3548441,4.3548441 0 0 1 -0.96633,-2.99185 v -0.23209 a 4.8316827,4.8316827 0 0 1 0.42198,-2.08458 3.2619133,3.2619133 0 0 1 1.22374,-1.41786 3.5362009,3.5362009 0 0 1 1.90314,-0.50216 3.2365944,3.2365944 0 0 1 2.24494,0.80599 2.911669,2.911669 0 0 1 0.95367,2.1099 h -1.30392 a 1.8778155,1.8778155 0 0 0 -0.59077,-1.26594 1.8313976,1.8313976 0 0 0 -1.30814,-0.50216 1.9200136,1.9200136 0 0 0 -1.62041,0.75113 3.5319811,3.5319811 0 0 0 -0.57389,2.17742 v 0.26163 a 3.468684,3.468684 0 0 0 0.56967,2.13522 1.9326731,1.9326731 0 0 0 1.63729,0.73847 z"
         id="path24684"
         style="stroke-width:0.421981" />
      <path
         d="m 111.5347,257.52938 a 0.81864318,0.81864318 0 0 1 0.20255,-0.56123 0.911479,0.911479 0 0 1 1.21531,0 0.80176394,0.80176394 0 0 1 0.20677,0.56123 0.77644508,0.77644508 0 0 1 -0.20677,0.55702 0.81020356,0.81020356 0 0 1 -1.41786,-0.55702 z m 1.48538,10.15709 h -1.3841 v -8.01764 h 1.37566 z"
         id="path24686"
         style="stroke-width:0.421981" />
      <path
         d="m 116.51408,259.66039 0.0422,1.00853 a 2.9201087,2.9201087 0 0 1 2.40529,-1.15623 q 2.53188,0 2.56564,2.86948 v 5.3043 h -1.37143 v -5.31274 a 1.8778155,1.8778155 0 0 0 -0.39667,-1.26595 1.6077477,1.6077477 0 0 0 -1.2153,-0.42198 1.9959702,1.9959702 0 0 0 -1.17311,0.35447 2.4390503,2.4390503 0 0 0 -0.78488,0.93679 v 5.71785 h -1.37144 v -8.01764 z"
         id="path24688"
         style="stroke-width:0.421981" />
      <path
         d="m 123.27,263.60591 a 4.6882091,4.6882091 0 0 1 0.86928,-2.98341 2.9918454,2.9918454 0 0 1 4.59115,-0.0717 l 0.0675,-0.89038 h 1.26594 v 7.83197 a 3.2661331,3.2661331 0 0 1 -0.92414,2.45593 3.4053868,3.4053868 0 0 1 -2.48125,0.89881 4.1776121,4.1776121 0 0 1 -1.68792,-0.37134 2.9538671,2.9538671 0 0 1 -1.26594,-1.01697 l 0.70892,-0.84396 a 2.6880191,2.6880191 0 0 0 2.16055,1.08871 2.1099051,2.1099051 0 0 0 1.56133,-0.56124 2.1647626,2.1647626 0 0 0 0.56123,-1.58665 v -0.69205 a 2.823053,2.823053 0 0 1 -2.24916,0.94946 2.7470964,2.7470964 0 0 1 -2.28292,-1.13513 4.9709364,4.9709364 0 0 1 -0.89459,-3.07202 z m 1.37987,0.15613 a 3.5910585,3.5910585 0 0 0 0.55702,2.10991 1.801859,1.801859 0 0 0 1.55711,0.77644 2.0128495,2.0128495 0 0 0 1.90735,-1.17732 v -3.66702 a 2.0381683,2.0381683 0 0 0 -1.89469,-1.14779 1.8271778,1.8271778 0 0 0 -1.56555,0.77645 3.9286433,3.9286433 0 0 0 -0.56124,2.33777 z"
         id="path24690"
         style="stroke-width:0.421981" />
      <path
         d="m 135.82815,263.30208 a 11.456785,11.456785 0 0 1 0.4473,-3.21971 9.2835824,9.2835824 0 0 1 1.3419,-2.80195 5.6376664,5.6376664 0 0 1 1.84406,-1.78076 l 0.28272,0.90303 a 5.958372,5.958372 0 0 0 -1.77654,2.53189 10.929308,10.929308 0 0 0 -0.75956,3.82315 v 0.62875 a 11.081222,11.081222 0 0 0 1.04651,4.97094 5.9414928,5.9414928 0 0 0 1.49803,1.97065 l -0.28272,0.84396 a 5.9077343,5.9077343 0 0 1 -1.88204,-1.83984 10.296337,10.296337 0 0 1 -1.75966,-6.03011 z"
         id="path24692"
         style="stroke-width:0.421981" />
      <path
         d="m 140.75267,263.60591 a 4.7093082,4.7093082 0 0 1 0.8735,-2.95387 2.979186,2.979186 0 0 1 4.52364,-0.16035 v -4.18183 h 1.35456 v 11.39349 h -1.26595 l -0.0675,-0.84397 a 2.7977342,2.7977342 0 0 1 -2.29136,1.00854 2.734437,2.734437 0 0 1 -2.27448,-1.14357 4.7430667,4.7430667 0 0 1 -0.87772,-2.97919 z m 1.37144,0.15613 a 3.5573,3.5573 0 0 0 0.56123,2.13523 1.822958,1.822958 0 0 0 1.56133,0.77222 1.9959702,1.9959702 0 0 0 1.90314,-1.1731 v -3.6839 a 2.0086297,2.0086297 0 0 0 -1.89048,-1.13513 1.8356174,1.8356174 0 0 0 -1.57399,0.77645 3.9286433,3.9286433 0 0 0 -0.57389,2.31667 z"
         id="path24694"
         style="stroke-width:0.421981" />
      <path
         d="m 152.80867,263.37804 a 11.56228,11.56228 0 0 1 -0.42198,3.16908 9.4523748,9.4523748 0 0 1 -1.32924,2.80195 5.7980192,5.7980192 0 0 1 -1.8736,1.82296 l -0.28695,-0.84396 a 5.9879107,5.9879107 0 0 0 1.83562,-2.71756 11.870326,11.870326 0 0 0 0.70893,-4.089 v -0.2363 a 12.123515,12.123515 0 0 0 -0.32915,-2.89901 9.7519814,9.7519814 0 0 0 -0.90726,-2.40108 5.5743693,5.5743693 0 0 0 -1.30814,-1.65416 l 0.28695,-0.84396 a 5.7305023,5.7305023 0 0 1 1.86516,1.81029 9.4186164,9.4186164 0 0 1 1.32924,2.79352 11.718413,11.718413 0 0 1 0.43042,3.28723 z"
         id="path24696"
         style="stroke-width:0.421981" />
      <text
         xml:space="preserve"
         style="font-weight:bold;font-size:40px;font-family:Roboto;-inkscape-font-specification:'Roboto, Bold';fill:#000000"
         x="183.55994"
         y="319.72806"
         id="text25500"><tspan
           sodipodi:role="line"
           id="tspan25498"
           x="183.55994"
           y="319.72806"
           style="font-style:normal;font-variant:normal;font-weight:bold;font-stretch:normal;font-size:16px;font-family:Roboto;-inkscape-font-specification:'Roboto, Bold';font-variant-ligatures:normal;font-variant-caps:normal;font-variant-numeric:normal;font-variant-east-asian:normal">Diffraction Grating</tspan></text>
    </g>
  </g>
</svg>
